<svg xmlns="http://www.w3.org/2000/svg" width="1964.747" height="589.213" viewBox="0 0 1964.747 589.213">
  <g id="Group_7298" data-name="Group 7298" transform="translate(-27.891 -139.614)">
    <path id="Path_1040" data-name="Path 1040" d="M584.96,231.927c5.8-1.3,12.2-2.66,19.172-4.036H584.96Z" transform="translate(602.169 92.459)" fill="#fff" stroke="#fff" stroke-width="1"/>
    <path id="Path_1041" data-name="Path 1041" d="M1313.63,236.592l-7.428-.173-4.512,5.759c-1.137,1.185-15.023,14.846-54.335,21.8a304.242,304.242,0,0,1-52.458,4.1c-53.825,0-119.648-10.417-195.649-30.964-78.591-21.242-161.342-32.011-245.943-32.011a971.938,971.938,0,0,0-98.112,4.931c-16.373,1.669-31.561,3.64-45.5,5.745a19.214,19.214,0,0,1,5.038,7.015c12.743-1.867,26.5-3.617,41.236-5.117a963.727,963.727,0,0,1,97.336-4.89c70,0,154.265,7.507,243.935,31.744,132.124,35.718,209.672,34.4,251.446,27.009,44.752-7.923,58.745-24.252,58.885-24.414l2.3-2.943,3.674.081h43.409v15.361h-40.143c-14.254,13.415-86.635,63.787-323.579-.263-134.565-36.377-256.834-34.435-335.705-26.4-15.009,1.529-29.01,3.331-41.955,5.259a19.118,19.118,0,0,1-4.725,8.486c14.425-2.247,30.289-4.355,47.454-6.106a942.947,942.947,0,0,1,95.016-4.771c81.889,0,161.935,10.411,237.915,30.952,78.637,21.256,146.986,32.034,203.154,32.034,77.73,0,112.426-20.591,125.343-31.5h44.907V236.592Z" transform="translate(627.501 68.083)" fill="#fff" stroke="#fff" stroke-width="1"/>
    <path id="Path_1042" data-name="Path 1042" d="M735.51,232.966c-78.879-8.033-201.149-9.975-335.712,26.4-236.942,64.05-309.326,13.678-323.577.263H36.074V244.27H79.483l3.676-.081,2.307,2.943c.136.163,14.128,16.492,58.877,24.414,41.78,7.393,119.322,8.709,251.448-27.009,89.668-24.237,173.933-31.749,243.943-31.744a963.669,963.669,0,0,1,97.332,4.89c10.818,1.1,21.089,2.34,30.848,3.657a19.291,19.291,0,0,1,6.068-6.923c-11.306-1.59-23.363-3.075-36.135-4.376a972.062,972.062,0,0,0-98.112-4.931c-84.607,0-167.354,10.77-245.948,32.011-76,20.547-141.828,30.964-195.65,30.964a304.266,304.266,0,0,1-52.456-4.1c-39.317-6.957-53.2-20.618-54.338-21.8l-4.51-5.759-7.434.173H28.391v30.724H73.3c12.916,10.914,47.613,31.5,125.345,31.5,56.161,0,124.516-10.778,203.158-32.034,75.974-20.541,156.021-30.956,237.906-30.952a943.03,943.03,0,0,1,95.021,4.771c12.289,1.252,23.891,2.693,34.8,4.232a19.037,19.037,0,0,1-3.5-8.238C756.374,235.288,746.2,234.057,735.51,232.966Z" transform="translate(0 68.083)" fill="#fff" stroke="#fff" stroke-width="1"/>
    <path id="Path_1043" data-name="Path 1043" d="M405.85,227.891c2.783.549,5.492,1.1,8.091,1.64v-1.64Z" transform="translate(408.393 92.471)" fill="#fff" stroke="#fff" stroke-width="1"/>
    <path id="Path_1044" data-name="Path 1044" d="M506.586,249.348a8.029,8.029,0,0,1-8.031-8.029,7.592,7.592,0,0,1,.138-1.37c.031-.186.073-.365.117-.544.054-.211.121-.413.19-.615a8,8,0,0,1,7.587-5.511h36.526v-3.859H506.586a11.9,11.9,0,0,0,0,23.8h36.526v-3.872Z" transform="translate(504.474 93.968)" fill="#fff" stroke="#fff" stroke-width="1"/>
    <path id="Path_1045" data-name="Path 1045" d="M500.342,238.224a4.161,4.161,0,0,1,4-3.085h36.526v-3.869H504.343a8,8,0,0,0-7.587,5.511,8.382,8.382,0,0,1,.67-1.487A8.148,8.148,0,0,0,500.342,238.224Z" transform="translate(506.714 96.003)" fill="#fff" stroke="#fff" stroke-width="1"/>
    <path id="Path_1046" data-name="Path 1046" d="M496.609,234.75c.033-.184.071-.365.117-.544C496.682,234.385,496.64,234.565,496.609,234.75Z" transform="translate(506.598 99.129)" fill="#fff" stroke="#fff" stroke-width="1"/>
    <path id="Path_1047" data-name="Path 1047" d="M496.665,234.526c.052-.211.123-.411.19-.615C496.786,234.113,496.719,234.316,496.665,234.526Z" transform="translate(506.658 98.818)" fill="#fff" stroke="#fff" stroke-width="1"/>
    <path id="Path_1048" data-name="Path 1048" d="M496.543,235.837a8.029,8.029,0,0,1,.138-1.37A7.593,7.593,0,0,0,496.543,235.837Z" transform="translate(506.526 99.4)" fill="#fff" stroke="#fff" stroke-width="1"/>
    <path id="Path_1049" data-name="Path 1049" d="M504.574,241.383a4.108,4.108,0,0,1-4-5.255,8.148,8.148,0,0,1-2.916-2.931,8.384,8.384,0,0,0-.67,1.487c-.067.2-.138.4-.19.615-.046.179-.083.361-.117.544a7.926,7.926,0,0,0,7.893,9.4H541.1v-3.861Z" transform="translate(506.483 98.008)" fill="#fff" stroke="#fff" stroke-width="1"/>
    <path id="Path_1050" data-name="Path 1050" d="M506.586,214.91a8.026,8.026,0,0,1-8.031-8.031,7.5,7.5,0,0,1,.138-1.364c.031-.19.073-.371.119-.557s.115-.394.184-.59a8,8,0,0,1,7.591-5.526h36.526v-3.863H506.586a11.9,11.9,0,0,0,0,23.8h36.526V214.91Z" transform="translate(504.474 57.729)" fill="#fff" stroke="#fff" stroke-width="1"/>
    <path id="Path_1051" data-name="Path 1051" d="M496.609,200.319c.033-.188.071-.373.119-.557C496.682,199.948,496.64,200.129,496.609,200.319Z" transform="translate(506.598 62.841)" fill="#fff" stroke="#fff" stroke-width="1"/>
    <path id="Path_1052" data-name="Path 1052" d="M500.344,203.778a4.156,4.156,0,0,1,4-3.075H540.87V196.83H504.345a8,8,0,0,0-7.591,5.526,8.419,8.419,0,0,1,.674-1.506A8.159,8.159,0,0,0,500.344,203.778Z" transform="translate(506.711 59.732)" fill="#fff" stroke="#fff" stroke-width="1"/>
    <path id="Path_1053" data-name="Path 1053" d="M496.666,200.069c.05-.2.119-.394.184-.59C496.781,199.675,496.718,199.869,496.666,200.069Z" transform="translate(506.659 62.543)" fill="#fff" stroke="#fff" stroke-width="1"/>
    <path id="Path_1054" data-name="Path 1054" d="M496.543,201.393a7.934,7.934,0,0,1,.138-1.364A7.5,7.5,0,0,0,496.543,201.393Z" transform="translate(506.526 63.12)" fill="#fff" stroke="#fff" stroke-width="1"/>
    <path id="Path_1055" data-name="Path 1055" d="M504.574,206.94a4.109,4.109,0,0,1-4-5.255,8.159,8.159,0,0,1-2.916-2.929,8.423,8.423,0,0,0-.674,1.506c-.065.2-.133.39-.184.59-.048.184-.085.369-.119.557a7.935,7.935,0,0,0-.138,1.364,8.027,8.027,0,0,0,8.031,8.031H541.1V206.94Z" transform="translate(506.483 61.745)" fill="#fff" stroke="#fff" stroke-width="1"/>
    <path id="Path_1056" data-name="Path 1056" d="M607.358,215.593c.609-.1,1.241-.192,1.855-.288a11.579,11.579,0,0,0-1.792-2.176v1.237C607.421,214.779,607.389,215.186,607.358,215.593Z" transform="translate(626.422 76.916)" fill="#fff" stroke="#fff" stroke-width="1"/>
    <path id="Path_1057" data-name="Path 1057" d="M623.891,211.782a15.229,15.229,0,0,1,7.182,1.792c1.8-.282,3.642-.561,5.484-.839a19.059,19.059,0,0,0-12.666-4.821H584.96v3.867Z" transform="translate(602.131 71.412)" fill="#fff" stroke="#fff" stroke-width="1"/>
    <path id="Path_1058" data-name="Path 1058" d="M613.909,230.974a19.1,19.1,0,0,0,13.82-5.922c-12.3,1.917-23.524,3.934-33.578,5.922Z" transform="translate(612.096 89.46)" fill="#fff" stroke="#fff" stroke-width="1"/>
    <path id="Path_1059" data-name="Path 1059" d="M607.458,211.29v0l.008.006a15.248,15.248,0,0,1,1.56,1.03c.052.038.1.075.152.115a15.359,15.359,0,0,1,2.7,2.655c.046.058.088.119.134.179a15.238,15.238,0,0,1,.911,1.329c.067.106.134.213.2.321.171.294.33.6.48.905,1.312-.2,2.649-.392,3.984-.588a19.214,19.214,0,0,0-5.038-7.015c-1.842.277-3.686.557-5.484.839C607.2,211.135,607.327,211.215,607.458,211.29Z" transform="translate(626.096 73.838)" fill="#fff" stroke="#fff" stroke-width="1"/>
    <path id="Path_1060" data-name="Path 1060" d="M638.194,221.62a15.292,15.292,0,0,1-14.3,9.9h-38.81l-.121.027v3.84h19.172c10.054-1.988,21.275-4.005,33.578-5.922a19.118,19.118,0,0,0,4.725-8.486C641.014,221.195,639.588,221.405,638.194,221.62Z" transform="translate(602.124 85.137)" fill="#fff" stroke="#fff" stroke-width="1"/>
    <path id="Path_1061" data-name="Path 1061" d="M611.166,216.651c.044.152.079.307.119.463q.175.679.288,1.383c.027.177.058.35.079.528a15.305,15.305,0,0,1,.129,1.892v3.34c0,.146-.019.29-.023.436,1.272-.194,2.595-.382,3.888-.574v-3.2a19.053,19.053,0,0,0-1.462-7.328c-1.335.2-2.672.39-3.984.588A14.989,14.989,0,0,1,611.166,216.651Z" transform="translate(629.493 77.366)" fill="#fff" stroke="#fff" stroke-width="1"/>
    <path id="Path_1062" data-name="Path 1062" d="M615.342,218.637c-1.293.192-2.616.38-3.888.574a15.219,15.219,0,0,1-.974,4.958c1.393-.215,2.82-.426,4.241-.636a19.063,19.063,0,0,0,.621-4.758Z" transform="translate(629.797 82.705)" fill="#fff" stroke="#fff" stroke-width="1"/>
    <path id="Path_1063" data-name="Path 1063" d="M584.96,226.064l.121-.027h-.121Z" transform="translate(602.191 90.525)" fill="#fff" stroke="#fff" stroke-width="1"/>
    <path id="Path_1064" data-name="Path 1064" d="M618.511,213.634c4.063-.7,8.231-1.393,12.562-2.073a15.229,15.229,0,0,0-7.182-1.792H584.96v3.865Z" transform="translate(602.137 73.371)" fill="#fff" stroke="#fff" stroke-width="1"/>
    <path id="Path_1065" data-name="Path 1065" d="M606.424,212.7a11.391,11.391,0,0,1,7.854,3.144v-2.1a15.315,15.315,0,0,0-.279-2.889c-.132-.075-.259-.154-.392-.225-4.33.68-8.5,1.375-12.562,2.073Z" transform="translate(619.577 74.271)" fill="#fff" stroke="#fff" stroke-width="1"/>
    <path id="Path_1066" data-name="Path 1066" d="M610.782,213.942a15.356,15.356,0,0,0-2.7-2.655A15.357,15.357,0,0,1,610.782,213.942Z" transform="translate(627.202 74.975)" fill="#fff" stroke="#fff" stroke-width="1"/>
    <path id="Path_1067" data-name="Path 1067" d="M610.45,214.342c-.15-.307-.309-.611-.48-.905.169.292.311.6.463.907Z" transform="translate(629.25 77.247)" fill="#fff" stroke="#fff" stroke-width="1"/>
    <path id="Path_1068" data-name="Path 1068" d="M609.439,212.646a15.216,15.216,0,0,1,.911,1.329A15.216,15.216,0,0,0,609.439,212.646Z" transform="translate(628.675 76.412)" fill="#fff" stroke="#fff" stroke-width="1"/>
    <path id="Path_1069" data-name="Path 1069" d="M607.258,210.738a15.236,15.236,0,0,1,1.56,1.03A15.236,15.236,0,0,0,607.258,210.738Z" transform="translate(626.315 74.403)" fill="#fff" stroke="#fff" stroke-width="1"/>
    <path id="Path_1070" data-name="Path 1070" d="M611.174,216.345a14.988,14.988,0,0,0-.966-2.474l-.017,0A15.216,15.216,0,0,1,611.174,216.345Z" transform="translate(629.49 77.698)" fill="#fff" stroke="#fff" stroke-width="1"/>
    <path id="Path_1071" data-name="Path 1071" d="M610.72,215.279c.117.453.213.916.288,1.383Q610.9,215.958,610.72,215.279Z" transform="translate(630.062 79.185)" fill="#fff" stroke="#fff" stroke-width="1"/>
    <path id="Path_1072" data-name="Path 1072" d="M610.9,216.195a15.306,15.306,0,0,1,.129,1.892A15.306,15.306,0,0,0,610.9,216.195Z" transform="translate(630.252 80.148)" fill="#fff" stroke="#fff" stroke-width="1"/>
    <path id="Path_1073" data-name="Path 1073" d="M609.375,212.56c.046.058.088.119.134.179C609.463,212.679,609.421,212.618,609.375,212.56Z" transform="translate(628.607 76.326)" fill="#fff" stroke="#fff" stroke-width="1"/>
    <path id="Path_1074" data-name="Path 1074" d="M607.254,210.735h0l.008,0Z" transform="translate(626.312 74.404)" fill="#fff" stroke="#fff" stroke-width="1"/>
    <path id="Path_1075" data-name="Path 1075" d="M609.876,213.283c.067.106.133.213.2.321C610.009,213.5,609.943,213.389,609.876,213.283Z" transform="translate(629.149 77.087)" fill="#fff" stroke="#fff" stroke-width="1"/>
    <path id="Path_1076" data-name="Path 1076" d="M608.006,211.232c.052.038.1.075.152.115C608.108,211.307,608.058,211.27,608.006,211.232Z" transform="translate(627.126 74.927)" fill="#fff" stroke="#fff" stroke-width="1"/>
    <path id="Path_1077" data-name="Path 1077" d="M610.663,215.057c.044.152.079.307.119.463C610.742,215.364,610.707,215.209,610.663,215.057Z" transform="translate(630.001 78.955)" fill="#fff" stroke="#fff" stroke-width="1"/>
    <path id="Path_1078" data-name="Path 1078" d="M610.858,215.942c.027.177.058.35.079.528C610.916,216.292,610.885,216.119,610.858,215.942Z" transform="translate(630.211 79.887)" fill="#fff" stroke="#fff" stroke-width="1"/>
    <path id="Path_1079" data-name="Path 1079" d="M607.533,215.728a11.578,11.578,0,0,1,1.792,2.176c1.345-.209,2.687-.417,4.057-.626-.152-.3-.294-.615-.463-.907-.063-.108-.129-.215-.2-.321a15.243,15.243,0,0,0-.911-1.329c-.046-.06-.088-.121-.134-.179a15.36,15.36,0,0,0-2.7-2.655c-.05-.04-.1-.077-.152-.115a15.236,15.236,0,0,0-1.56-1.03l-.008,0a15.32,15.32,0,0,1,.279,2.889Z" transform="translate(626.305 74.377)" fill="#fff" stroke="#fff" stroke-width="1"/>
    <path id="Path_1080" data-name="Path 1080" d="M623.828,227.326H603.554q-10.05,1.971-18.536,3.867h38.81a15.292,15.292,0,0,0,14.3-9.9c-1.579.242-3.125.488-4.668.734A11.427,11.427,0,0,1,623.828,227.326Z" transform="translate(602.192 85.479)" fill="#fff" stroke="#fff" stroke-width="1"/>
    <path id="Path_1081" data-name="Path 1081" d="M608.247,214.5a11.348,11.348,0,0,1,1.788,6.112v3.34c0,.353-.021.7-.052,1.049,1.3-.2,2.574-.411,3.9-.613,0-.146.023-.29.023-.436v-3.34a15.305,15.305,0,0,0-.129-1.892c-.021-.177-.052-.35-.079-.528-.075-.467-.171-.93-.288-1.383-.04-.156-.075-.311-.119-.463a15.21,15.21,0,0,0-.982-2.472C610.934,214.081,609.592,214.289,608.247,214.5Z" transform="translate(627.38 77.663)" fill="#fff" stroke="#fff" stroke-width="1"/>
    <path id="Path_1082" data-name="Path 1082" d="M584.96,224.183v3.867h.121q8.473-1.88,18.536-3.867Z" transform="translate(602.169 88.554)" fill="#fff" stroke="#fff" stroke-width="1"/>
    <path id="Path_1083" data-name="Path 1083" d="M609.988,219.525a11.352,11.352,0,0,1-1.746,5.079c1.544-.246,3.089-.492,4.668-.734a15.218,15.218,0,0,0,.974-4.958C612.562,219.114,611.288,219.321,609.988,219.525Z" transform="translate(627.374 82.994)" fill="#fff" stroke="#fff" stroke-width="1"/>
    <path id="Path_1084" data-name="Path 1084" d="M521.77,202.445a15.975,15.975,0,0,1,15.977-15.979H592.9a16.3,16.3,0,0,1,2.7-3.865H537.747A19.865,19.865,0,0,0,517.9,202.445v5.974h3.867Z" transform="translate(529.556 46.14)" fill="#fff" stroke="#fff" stroke-width="1"/>
    <path id="Path_1085" data-name="Path 1085" d="M521.77,218.125V206.387H517.9v15.607A3.866,3.866,0,0,1,521.77,218.125Z" transform="translate(529.633 69.765)" fill="#fff" stroke="#fff" stroke-width="1"/>
    <path id="Path_1086" data-name="Path 1086" d="M521.77,225.8a3.864,3.864,0,0,1-3.867-3.867v15.609h3.867Z" transform="translate(529.633 86.134)" fill="#fff" stroke="#fff" stroke-width="1"/>
    <path id="Path_1087" data-name="Path 1087" d="M583.394,262.778H537.747A15.974,15.974,0,0,1,521.77,246.8v-5.97H517.9v5.97a19.868,19.868,0,0,0,19.844,19.844H595.6a16.23,16.23,0,0,1-2.7-3.865Z" transform="translate(529.556 105.962)" fill="#fff" stroke="#fff" stroke-width="1"/>
    <rect id="Rectangle_4212" data-name="Rectangle 4212" width="3.866" height="4.172" transform="translate(1047.537 331.095)" fill="#fff" stroke="#fff" stroke-width="1"/>
    <rect id="Rectangle_4213" data-name="Rectangle 4213" width="3.866" height="4.168" transform="translate(1047.537 335.201)" fill="#fff" stroke="#fff" stroke-width="1"/>
    <rect id="Rectangle_4214" data-name="Rectangle 4214" width="3.866" height="3.871" transform="translate(1047.537 343.106)" fill="#fff" stroke="#fff" stroke-width="1"/>
    <rect id="Rectangle_4215" data-name="Rectangle 4215" width="3.866" height="3.86" transform="translate(1047.537 323.488)" fill="#fff" stroke="#fff" stroke-width="1"/>
    <rect id="Rectangle_4216" data-name="Rectangle 4216" width="3.866" height="3.868" transform="translate(1047.537 327.288)" fill="#fff" stroke="#fff" stroke-width="1"/>
    <rect id="Rectangle_4217" data-name="Rectangle 4217" width="3.866" height="3.86" transform="translate(1047.537 339.306)" fill="#fff" stroke="#fff" stroke-width="1"/>
    <rect id="Rectangle_4218" data-name="Rectangle 4218" width="3.866" height="4.163" transform="translate(1047.537 260.384)" fill="#fff" stroke="#fff" stroke-width="1"/>
    <rect id="Rectangle_4219" data-name="Rectangle 4219" width="3.866" height="4.167" transform="translate(1047.537 264.482)" fill="#fff" stroke="#fff" stroke-width="1"/>
    <rect id="Rectangle_4220" data-name="Rectangle 4220" width="3.866" height="3.862" transform="translate(1047.537 254.56)" fill="#fff" stroke="#fff" stroke-width="1"/>
    <rect id="Rectangle_4221" data-name="Rectangle 4221" width="3.866" height="3.868" transform="translate(1047.537 272.388)" fill="#fff" stroke="#fff" stroke-width="1"/>
    <rect id="Rectangle_4222" data-name="Rectangle 4222" width="3.866" height="3.874" transform="translate(1047.537 256.572)" fill="#fff" stroke="#fff" stroke-width="1"/>
    <rect id="Rectangle_4223" data-name="Rectangle 4223" width="3.866" height="3.864" transform="translate(1047.537 268.584)" fill="#fff" stroke="#fff" stroke-width="1"/>
    <rect id="Rectangle_4224" data-name="Rectangle 4224" width="3.864" height="11.737" transform="translate(1051.396 276.167)" fill="#fff" stroke="#fff" stroke-width="1"/>
    <path id="Path_1088" data-name="Path 1088" d="M535.734,258.908A12.125,12.125,0,0,1,523.62,246.8v-5.97h-3.863v5.97a15.974,15.974,0,0,0,15.977,15.979h45.647v-3.87Z" transform="translate(531.579 105.985)" fill="#fff" stroke="#fff" stroke-width="1"/>
    <path id="Path_1089" data-name="Path 1089" d="M523.62,200.433a12.123,12.123,0,0,1,12.113-12.111h45.647v-3.867H535.734a15.976,15.976,0,0,0-15.977,15.979v5.974h3.863Z" transform="translate(531.579 48.152)" fill="#fff" stroke="#fff" stroke-width="1"/>
    <rect id="Rectangle_4225" data-name="Rectangle 4225" width="3.864" height="11.743" transform="translate(1051.396 311.893)" fill="#fff" stroke="#fff" stroke-width="1"/>
    <rect id="Rectangle_4226" data-name="Rectangle 4226" width="3.864" height="4.172" transform="translate(1051.396 331.095)" fill="#fff" stroke="#fff" stroke-width="1"/>
    <rect id="Rectangle_4227" data-name="Rectangle 4227" width="3.864" height="4.168" transform="translate(1051.396 335.201)" fill="#fff" stroke="#fff" stroke-width="1"/>
    <rect id="Rectangle_4228" data-name="Rectangle 4228" width="3.864" height="3.86" transform="translate(1051.396 323.488)" fill="#fff" stroke="#fff" stroke-width="1"/>
    <rect id="Rectangle_4229" data-name="Rectangle 4229" width="3.864" height="3.871" transform="translate(1051.396 343.106)" fill="#fff" stroke="#fff" stroke-width="1"/>
    <rect id="Rectangle_4230" data-name="Rectangle 4230" width="3.864" height="3.868" transform="translate(1051.396 327.288)" fill="#fff" stroke="#fff" stroke-width="1"/>
    <rect id="Rectangle_4231" data-name="Rectangle 4231" width="3.864" height="3.86" transform="translate(1051.396 339.306)" fill="#fff" stroke="#fff" stroke-width="1"/>
    <rect id="Rectangle_4232" data-name="Rectangle 4232" width="3.864" height="4.163" transform="translate(1051.396 260.384)" fill="#fff" stroke="#fff" stroke-width="1"/>
    <rect id="Rectangle_4233" data-name="Rectangle 4233" width="3.864" height="4.167" transform="translate(1051.396 264.482)" fill="#fff" stroke="#fff" stroke-width="1"/>
    <rect id="Rectangle_4234" data-name="Rectangle 4234" width="3.864" height="3.868" transform="translate(1051.396 272.388)" fill="#fff" stroke="#fff" stroke-width="1"/>
    <rect id="Rectangle_4235" data-name="Rectangle 4235" width="3.864" height="3.862" transform="translate(1051.396 254.56)" fill="#fff" stroke="#fff" stroke-width="1"/>
    <rect id="Rectangle_4236" data-name="Rectangle 4236" width="3.864" height="3.874" transform="translate(1051.396 256.572)" fill="#fff" stroke="#fff" stroke-width="1"/>
    <rect id="Rectangle_4237" data-name="Rectangle 4237" width="3.864" height="3.864" transform="translate(1051.396 268.584)" fill="#fff" stroke="#fff" stroke-width="1"/>
    <path id="Path_1090" data-name="Path 1090" d="M549.3,249.5v3.87h9.51a16.592,16.592,0,0,1-1.37-3.87Z" transform="translate(563.596 115.218)" fill="#fff" stroke="#fff" stroke-width="1"/>
    <path id="Path_1091" data-name="Path 1091" d="M557.438,188.321a16.632,16.632,0,0,1,1.368-3.867H549.3v3.867Z" transform="translate(563.596 48.152)" fill="#fff" stroke="#fff" stroke-width="1"/>
    <path id="Path_1092" data-name="Path 1092" d="M557.772,186.308H557.5a9.007,9.007,0,0,0-.784,3.646V314.471a9.055,9.055,0,0,0,.782,3.646h.275Z" transform="translate(571.629 48.244)" fill="#fff" stroke="#fff" stroke-width="1"/>
    <path id="Path_1093" data-name="Path 1093" d="M559.867,184.663c-.1-.14-.217-.267-.326-.4a7.268,7.268,0,0,0-.795.4h1.12Z" transform="translate(573.828 47.944)" fill="#fff" stroke="#fff" stroke-width="1"/>
    <path id="Path_1094" data-name="Path 1094" d="M559.443,251.351h-.7a7.408,7.408,0,0,0,.8.4c.108-.136.225-.265.329-.4Z" transform="translate(573.822 117.193)" fill="#fff" stroke="#fff" stroke-width="1"/>
    <path id="Path_1095" data-name="Path 1095" d="M563.006,184.627c.1-.031.208-.056.315-.086a10.6,10.6,0,0,1,1.066-.229c.127-.023.254-.046.384-.063a11.049,11.049,0,0,1,1.422-.1c6.425,0,11.642,5.534,11.642,12.355v15.413H581.7V196.5c0-8.945-6.955-16.225-15.507-16.225a15.15,15.15,0,0,0-11.043,4.846h6.5A11.322,11.322,0,0,1,563.006,184.627Z" transform="translate(569.908 43.617)" fill="#fff" stroke="#fff" stroke-width="1"/>
    <path id="Path_1096" data-name="Path 1096" d="M577.833,255.771c0,6.825-5.217,12.355-11.642,12.355a11.128,11.128,0,0,1-1.427-.1c-.125-.017-.248-.04-.373-.061a10.961,10.961,0,0,1-1.083-.234c-.1-.027-.2-.052-.3-.081a10.9,10.9,0,0,1-1.36-.5h-6.5a15.14,15.14,0,0,0,11.039,4.839c8.553,0,15.507-7.274,15.507-16.221V240.36h-3.865Z" transform="translate(569.91 105.434)" fill="#fff" stroke="#fff" stroke-width="1"/>
    <path id="Path_1097" data-name="Path 1097" d="M556.872,189.954a13.008,13.008,0,0,1,.517-3.646h-3.976a16.9,16.9,0,0,0-.409,3.646V314.471a16.915,16.915,0,0,0,.409,3.646h3.976a13.008,13.008,0,0,1-.517-3.646Z" transform="translate(567.612 48.244)" fill="#fff" stroke="#fff" stroke-width="1"/>
    <path id="Path_1098" data-name="Path 1098" d="M558.365,186.466a11.94,11.94,0,0,1,3.4-3.173l0,0,.038-.019a11.238,11.238,0,0,1,1.25-.672h-6.5a16.3,16.3,0,0,0-2.7,3.865Z" transform="translate(568.528 46.14)" fill="#fff" stroke="#fff" stroke-width="1"/>
    <path id="Path_1099" data-name="Path 1099" d="M561.818,254.555l-.054-.029.006,0a11.917,11.917,0,0,1-3.406-3.173h-4.506a16.23,16.23,0,0,0,2.7,3.865h6.5A11.518,11.518,0,0,1,561.818,254.555Z" transform="translate(568.529 117.172)" fill="#fff" stroke="#fff" stroke-width="1"/>
    <path id="Path_1100" data-name="Path 1100" d="M557.177,188.321a12.575,12.575,0,0,1,1.9-3.867h-4.508a16.629,16.629,0,0,0-1.368,3.867Z" transform="translate(567.822 48.152)" fill="#fff" stroke="#fff" stroke-width="1"/>
    <path id="Path_1101" data-name="Path 1101" d="M553.2,249.5a16.589,16.589,0,0,0,1.37,3.87h4.506a12.56,12.56,0,0,1-1.9-3.87Z" transform="translate(567.822 115.218)" fill="#fff" stroke="#fff" stroke-width="1"/>
    <path id="Path_1102" data-name="Path 1102" d="M561.187,253.724a11.12,11.12,0,0,1-1.427-.1A11.12,11.12,0,0,0,561.187,253.724Z" transform="translate(574.924 119.587)" fill="#fff" stroke="#fff" stroke-width="1"/>
    <path id="Path_1103" data-name="Path 1103" d="M559.067,182.441c.348-.094.705-.169,1.066-.229A10.609,10.609,0,0,0,559.067,182.441Z" transform="translate(574.174 45.718)" fill="#fff" stroke="#fff" stroke-width="1"/>
    <path id="Path_1104" data-name="Path 1104" d="M559.762,182.235a11.059,11.059,0,0,1,1.423-.1A11.059,11.059,0,0,0,559.762,182.235Z" transform="translate(574.926 45.632)" fill="#fff" stroke="#fff" stroke-width="1"/>
    <path id="Path_1105" data-name="Path 1105" d="M560.145,253.715a10.971,10.971,0,0,1-1.083-.234A10.971,10.971,0,0,0,560.145,253.715Z" transform="translate(574.169 119.438)" fill="#fff" stroke="#fff" stroke-width="1"/>
    <path id="Path_1106" data-name="Path 1106" d="M559.623,182.363a11.326,11.326,0,0,0-1.358.5h.021A11.383,11.383,0,0,1,559.623,182.363Z" transform="translate(573.306 45.882)" fill="#fff" stroke="#fff" stroke-width="1"/>
    <path id="Path_1107" data-name="Path 1107" d="M558.267,253.2a10.886,10.886,0,0,0,1.36.5,11.452,11.452,0,0,1-1.341-.5Z" transform="translate(573.308 119.144)" fill="#fff" stroke="#fff" stroke-width="1"/>
    <path id="Path_1108" data-name="Path 1108" d="M558.731,189.954a9.009,9.009,0,0,1,.784-3.646h-4.139a13.01,13.01,0,0,0-.517,3.646V314.471a13.01,13.01,0,0,0,.517,3.646h4.137a9.056,9.056,0,0,1-.782-3.646Z" transform="translate(569.617 48.244)" fill="#fff" stroke="#fff" stroke-width="1"/>
    <path id="Path_1109" data-name="Path 1109" d="M562.505,185.705a11.89,11.89,0,0,0-3.083-2.772,11.939,11.939,0,0,0-3.4,3.173h5.693A7.267,7.267,0,0,1,562.505,185.705Z" transform="translate(570.869 46.501)" fill="#fff" stroke="#fff" stroke-width="1"/>
    <path id="Path_1110" data-name="Path 1110" d="M562.5,251.756a7.417,7.417,0,0,1-.8-.4h-5.682a11.918,11.918,0,0,0,3.407,3.173A11.928,11.928,0,0,0,562.5,251.756Z" transform="translate(570.869 117.176)" fill="#fff" stroke="#fff" stroke-width="1"/>
    <path id="Path_1111" data-name="Path 1111" d="M558.916,182.6a11.212,11.212,0,0,0-1.25.672,11.185,11.185,0,0,1,1.27-.672Z" transform="translate(572.658 46.14)" fill="#fff" stroke="#fff" stroke-width="1"/>
    <path id="Path_1112" data-name="Path 1112" d="M557.674,252.887a11.524,11.524,0,0,0,1.237.661h.019A11.418,11.418,0,0,1,557.674,252.887Z" transform="translate(572.667 118.809)" fill="#fff" stroke="#fff" stroke-width="1"/>
    <path id="Path_1113" data-name="Path 1113" d="M559.246,188.321a8.19,8.19,0,0,1,3.454-3.867h-5.693a12.573,12.573,0,0,0-1.9,3.867Z" transform="translate(569.882 48.152)" fill="#fff" stroke="#fff" stroke-width="1"/>
    <path id="Path_1114" data-name="Path 1114" d="M559.244,249.5h-4.137a12.56,12.56,0,0,0,1.9,3.87h5.682A8.207,8.207,0,0,1,559.244,249.5Z" transform="translate(569.882 115.218)" fill="#fff" stroke="#fff" stroke-width="1"/>
    <path id="Path_1115" data-name="Path 1115" d="M559.578,182.245c.127-.021.254-.046.384-.063C559.832,182.2,559.705,182.222,559.578,182.245Z" transform="translate(574.728 45.685)" fill="#fff" stroke="#fff" stroke-width="1"/>
    <path id="Path_1116" data-name="Path 1116" d="M558.916,182.408c.1-.031.208-.056.315-.086C559.125,182.351,559.02,182.376,558.916,182.408Z" transform="translate(574.012 45.837)" fill="#fff" stroke="#fff" stroke-width="1"/>
    <path id="Path_1117" data-name="Path 1117" d="M559.217,253.523c-.1-.027-.2-.052-.3-.081C559.017,253.471,559.117,253.5,559.217,253.523Z" transform="translate(574.015 119.398)" fill="#fff" stroke="#fff" stroke-width="1"/>
    <path id="Path_1118" data-name="Path 1118" d="M559.954,253.653c-.125-.017-.248-.04-.373-.06C559.706,253.614,559.829,253.637,559.954,253.653Z" transform="translate(574.731 119.557)" fill="#fff" stroke="#fff" stroke-width="1"/>
    <path id="Path_1119" data-name="Path 1119" d="M557.648,182.942l0,0,.033-.021Z" transform="translate(572.64 46.49)" fill="#fff" stroke="#fff" stroke-width="1"/>
    <path id="Path_1120" data-name="Path 1120" d="M557.648,252.874l.054.029-.048-.031Z" transform="translate(572.64 118.798)" fill="#fff" stroke="#fff" stroke-width="1"/>
    <path id="Path_1121" data-name="Path 1121" d="M570.573,238.5v19.281a8.243,8.243,0,0,1-6.867,8.394,3.864,3.864,0,0,1-3.757,2.987h-1.673a11.447,11.447,0,0,0,1.341.5c.1.029.2.054.3.081a10.97,10.97,0,0,0,1.083.234c.125.021.248.044.373.061a11.123,11.123,0,0,0,1.427.1c6.425,0,11.642-5.53,11.642-12.355V242.374A3.866,3.866,0,0,1,570.573,238.5Z" transform="translate(573.302 103.483)" fill="#fff" stroke="#fff" stroke-width="1"/>
    <path id="Path_1122" data-name="Path 1122" d="M559.95,183.109a3.864,3.864,0,0,1,3.759,2.991,8.24,8.24,0,0,1,6.865,8.388v19.281a3.867,3.867,0,0,1,3.867-3.867V194.488c0-6.821-5.217-12.355-11.642-12.355a11.058,11.058,0,0,0-1.423.1c-.129.017-.257.042-.384.063-.361.06-.718.136-1.066.229-.106.029-.211.054-.315.086a11.392,11.392,0,0,0-1.337.5Z" transform="translate(573.301 45.632)" fill="#fff" stroke="#fff" stroke-width="1"/>
    <path id="Path_1123" data-name="Path 1123" d="M560.733,186.066a7.151,7.151,0,0,1,2.745-.574,7.3,7.3,0,0,1,.909.1,3.864,3.864,0,0,0-3.759-2.991h-1.675a11.2,11.2,0,0,0-1.27.672l-.033.021A11.89,11.89,0,0,1,560.733,186.066Z" transform="translate(572.635 46.14)" fill="#fff" stroke="#fff" stroke-width="1"/>
    <path id="Path_1124" data-name="Path 1124" d="M560.628,255.006a3.864,3.864,0,0,0,3.757-2.987,6.857,6.857,0,0,1-.908.1,7.123,7.123,0,0,1-2.747-.574,11.929,11.929,0,0,1-3.079,2.768l.048.031a11.4,11.4,0,0,0,1.256.661Z" transform="translate(572.636 117.379)" fill="#fff" stroke="#fff" stroke-width="1"/>
    <path id="Path_1125" data-name="Path 1125" d="M576.37,199.312H587a12.638,12.638,0,0,1,12.643,12.635v9.51h3.867v-9.51A16.529,16.529,0,0,0,587,195.445H567.878v3.867Z" transform="translate(583.669 58.213)" fill="#fff" stroke="#fff" stroke-width="1"/>
    <path id="Path_1126" data-name="Path 1126" d="M599.643,235.289A12.638,12.638,0,0,1,587,247.93H567.878V251.8H587a16.533,16.533,0,0,0,16.511-16.511v-5.463c-1.323.3-2.608.59-3.867.88Z" transform="translate(583.669 94.406)" fill="#fff" stroke="#fff" stroke-width="1"/>
    <path id="Path_1127" data-name="Path 1127" d="M583.106,227.891v4.917c1.26-.29,2.545-.582,3.867-.88v-4.036Z" transform="translate(600.18 92.455)" fill="#fff" stroke="#fff" stroke-width="1"/>
    <path id="Path_1128" data-name="Path 1128" d="M586.973,218.086v-6.464h-3.867v7.307C584.374,218.65,585.655,218.37,586.973,218.086Z" transform="translate(600.18 75.31)" fill="#fff" stroke="#fff" stroke-width="1"/>
    <path id="Path_1129" data-name="Path 1129" d="M586.973,222.575v-7.854c-1.318.284-2.6.563-3.867.843v7.862C584.372,223.144,585.653,222.861,586.973,222.575Z" transform="translate(600.18 78.567)" fill="#fff" stroke="#fff" stroke-width="1"/>
    <path id="Path_1130" data-name="Path 1130" d="M583.106,223.847h3.867v-5.361c-1.32.286-2.6.57-3.867.851Z" transform="translate(600.18 82.547)" fill="#fff" stroke="#fff" stroke-width="1"/>
    <path id="Path_1131" data-name="Path 1131" d="M583.106,221.056v6.485c1.262-.288,2.547-.576,3.867-.87v-5.615Z" transform="translate(600.18 85.249)" fill="#fff" stroke="#fff" stroke-width="1"/>
    <path id="Path_1132" data-name="Path 1132" d="M583.106,224.618v.038h3.867v-.907C585.653,224.042,584.368,224.33,583.106,224.618Z" transform="translate(600.18 88.11)" fill="#fff" stroke="#fff" stroke-width="1"/>
    <rect id="Rectangle_4238" data-name="Rectangle 4238" width="3.867" height="3.867" transform="translate(1183.287 279.333)" fill="#fff" stroke="#fff" stroke-width="1"/>
    <path id="Path_1133" data-name="Path 1133" d="M583.106,229.89h3.867v-3.84c-1.32.292-2.605.582-3.867.87Z" transform="translate(600.18 90.521)" fill="#fff" stroke="#fff" stroke-width="1"/>
    <path id="Path_1134" data-name="Path 1134" d="M583.106,226.037v.9c1.262-.288,2.547-.578,3.867-.87v-.027Z" transform="translate(600.18 90.521)" fill="#fff" stroke="#fff" stroke-width="1"/>
    <rect id="Rectangle_4239" data-name="Rectangle 4239" width="3.867" height="3.864" transform="translate(1183.287 283.14)" fill="#fff" stroke="#fff" stroke-width="1"/>
    <rect id="Rectangle_4240" data-name="Rectangle 4240" width="3.867" height="3.869" transform="translate(1183.287 312.736)" fill="#fff" stroke="#fff" stroke-width="1"/>
    <rect id="Rectangle_4241" data-name="Rectangle 4241" width="3.864" height="3.867" transform="translate(1147.725 255.534)" fill="#fff" stroke="#fff" stroke-width="1"/>
    <rect id="Rectangle_4242" data-name="Rectangle 4242" width="3.864" height="3.87" transform="translate(1147.725 342.146)" fill="#fff" stroke="#fff" stroke-width="1"/>
    <path id="Path_1135" data-name="Path 1135" d="M568.038,195.445a3.867,3.867,0,0,0-3.867,3.867v85.955a3.866,3.866,0,0,0,3.867,3.869V195.445Z" transform="translate(579.693 57.961)" fill="#fff" stroke="#fff" stroke-width="1"/>
    <path id="Path_1136" data-name="Path 1136" d="M585.465,201.166a12.612,12.612,0,0,0-9.095-3.867h-8.492v3.867Z" transform="translate(583.689 60.236)" fill="#fff" stroke="#fff" stroke-width="1"/>
    <path id="Path_1137" data-name="Path 1137" d="M585.463,236.652H567.878v3.865h8.492A12.608,12.608,0,0,0,585.463,236.652Z" transform="translate(583.689 101.689)" fill="#fff" stroke="#fff" stroke-width="1"/>
    <path id="Path_1138" data-name="Path 1138" d="M569.89,201.166V197.3h-3.864v85.955h3.864V201.166Z" transform="translate(581.7 59.937)" fill="#fff" stroke="#fff" stroke-width="1"/>
    <path id="Path_1139" data-name="Path 1139" d="M581.044,201.166h1.535a8.787,8.787,0,0,1,8.78,8.767v9.51h3.863v-9.51A12.638,12.638,0,0,0,582.579,197.3h-10.63A12.612,12.612,0,0,1,581.044,201.166Z" transform="translate(588.087 60.177)" fill="#fff" stroke="#fff" stroke-width="1"/>
    <path id="Path_1140" data-name="Path 1140" d="M591.359,234.831a8.789,8.789,0,0,1-8.78,8.776h-1.537a12.608,12.608,0,0,1-9.093,3.865h10.63a12.638,12.638,0,0,0,12.643-12.641v-4.583c-1.314.3-2.62.6-3.863.9Z" transform="translate(588.087 94.875)" fill="#fff" stroke="#fff" stroke-width="1"/>
    <path id="Path_1141" data-name="Path 1141" d="M581.254,233.707c1.243-.294,2.549-.6,3.863-.9v-4.917h-3.863Z" transform="translate(598.177 92.451)" fill="#fff" stroke="#fff" stroke-width="1"/>
    <path id="Path_1142" data-name="Path 1142" d="M585.117,218.929v-7.307h-3.863v8.169C582.51,219.5,583.807,219.219,585.117,218.929Z" transform="translate(598.177 75.306)" fill="#fff" stroke="#fff" stroke-width="1"/>
    <path id="Path_1143" data-name="Path 1143" d="M585.117,222.987v-7.862c-1.31.29-2.607.576-3.863.862v7.87C582.508,223.571,583.807,223.279,585.117,222.987Z" transform="translate(598.177 78.993)" fill="#fff" stroke="#fff" stroke-width="1"/>
    <path id="Path_1144" data-name="Path 1144" d="M581.254,219.764v3.64h3.863v-4.51C583.807,219.186,582.508,219.478,581.254,219.764Z" transform="translate(598.177 82.98)" fill="#fff" stroke="#fff" stroke-width="1"/>
    <path id="Path_1145" data-name="Path 1145" d="M581.254,221.056v6.523h3.7l.158-.038v-6.485Z" transform="translate(598.177 85.249)" fill="#fff" stroke="#fff" stroke-width="1"/>
    <path id="Path_1146" data-name="Path 1146" d="M583.188,224.2v-.038l-.159.038Z" transform="translate(600.102 88.553)" fill="#fff" stroke="#fff" stroke-width="1"/>
    <rect id="Rectangle_4243" data-name="Rectangle 4243" width="3.864" height="3.867" transform="translate(1179.43 279.333)" fill="#fff" stroke="#fff" stroke-width="1"/>
    <path id="Path_1147" data-name="Path 1147" d="M581.254,227.356v2.082h3.863v-2.97C583.805,226.765,582.5,227.064,581.254,227.356Z" transform="translate(598.177 90.964)" fill="#fff" stroke="#fff" stroke-width="1"/>
    <path id="Path_1148" data-name="Path 1148" d="M581.254,227.823c1.247-.292,2.551-.59,3.863-.889v-.9h-3.863Z" transform="translate(598.177 90.517)" fill="#fff" stroke="#fff" stroke-width="1"/>
    <rect id="Rectangle_4244" data-name="Rectangle 4244" width="3.864" height="3.864" transform="translate(1179.43 283.14)" fill="#fff" stroke="#fff" stroke-width="1"/>
    <path id="Path_1149" data-name="Path 1149" d="M581.254,225.034c1.2-.28,2.447-.565,3.7-.851h-3.7Z" transform="translate(598.177 88.568)" fill="#fff" stroke="#fff" stroke-width="1"/>
    <path id="Path_1150" data-name="Path 1150" d="M584.959,224.183c-1.258.286-2.508.572-3.7.851v3.016h3.863v-3.867Z" transform="translate(598.177 88.554)" fill="#fff" stroke="#fff" stroke-width="1"/>
    <path id="Path_1151" data-name="Path 1151" d="M548.956,232.711V215.884a3.87,3.87,0,0,0-3.872-3.87H521.609v3.87h23.476v16.828H521.609v3.867h23.476A3.868,3.868,0,0,0,548.956,232.711Z" transform="translate(533.619 75.651)" fill="#fff" stroke="#fff" stroke-width="1"/>
    <path id="Path_1152" data-name="Path 1152" d="M521.77,236.579V212.014a3.866,3.866,0,0,0-3.867,3.87v16.828A3.865,3.865,0,0,0,521.77,236.579Z" transform="translate(529.633 75.651)" fill="#fff" stroke="#fff" stroke-width="1"/>
    <rect id="Rectangle_4245" data-name="Rectangle 4245" width="3.864" height="3.866" transform="translate(1051.396 308.124)" fill="#fff" stroke="#fff" stroke-width="1"/>
    <rect id="Rectangle_4246" data-name="Rectangle 4246" width="3.864" height="3.87" transform="translate(1051.396 287.749)" fill="#fff" stroke="#fff" stroke-width="1"/>
    <path id="Path_1153" data-name="Path 1153" d="M541.212,222.285h3.873v-8.416H521.609v3.862h19.6Z" transform="translate(533.623 77.671)" fill="#fff" stroke="#fff" stroke-width="1"/>
    <path id="Path_1154" data-name="Path 1154" d="M523.621,217.731v-3.862h-3.865v8.416h3.865Z" transform="translate(531.639 77.671)" fill="#fff" stroke="#fff" stroke-width="1"/>
    <path id="Path_1155" data-name="Path 1155" d="M545.085,217.9h-3.873v4.55h-19.6v3.863h23.475Z" transform="translate(533.623 81.92)" fill="#fff" stroke="#fff" stroke-width="1"/>
    <path id="Path_1156" data-name="Path 1156" d="M523.621,222.453V217.9h-3.865v8.413h3.865Z" transform="translate(531.639 81.92)" fill="#fff" stroke="#fff" stroke-width="1"/>
    <path id="Path_1157" data-name="Path 1157" d="M575.927,233.1v-5.117h-2.789a3.836,3.836,0,0,1-1.079-.173v5.29a3.867,3.867,0,0,0,7.735,0v-5.117h-3.867Z" transform="translate(588.225 92.347)" fill="#fff" stroke="#fff" stroke-width="1"/>
    <path id="Path_1158" data-name="Path 1158" d="M575.927,212.592v0h3.867v-5.117a3.867,3.867,0,0,0-7.735,0v5.288a3.839,3.839,0,0,1,1.079-.171Z" transform="translate(588.225 66.863)" fill="#fff" stroke="#fff" stroke-width="1"/>
    <rect id="Rectangle_4247" data-name="Rectangle 4247" width="2.787" height="19.68" transform="translate(1165.228 286.88)" fill="#fff" stroke="#fff" stroke-width="1"/>
    <rect id="Rectangle_4248" data-name="Rectangle 4248" width="2.787" height="6.521" transform="translate(1165.228 306.305)" fill="#fff" stroke="#fff" stroke-width="1"/>
    <rect id="Rectangle_4249" data-name="Rectangle 4249" width="3.866" height="3.867" transform="translate(1164.149 279.333)" fill="#fff" stroke="#fff" stroke-width="1"/>
    <rect id="Rectangle_4250" data-name="Rectangle 4250" width="3.866" height="3.866" transform="translate(1164.149 316.544)" fill="#fff" stroke="#fff" stroke-width="1"/>
    <path id="Path_1159" data-name="Path 1159" d="M575.927,249.585v-3.867h-2.789V211.782h2.789v-3.867h-2.789a3.838,3.838,0,0,0-1.079.171v41.325a3.836,3.836,0,0,0,1.079.173Z" transform="translate(588.229 71.268)" fill="#fff" stroke="#fff" stroke-width="1"/>
    <path id="Path_1160" data-name="Path 1160" d="M574.994,233.314v-19.68h2.787v-3.865h-3.866v23.545Z" transform="translate(590.235 73.293)" fill="#fff" stroke="#fff" stroke-width="1"/>
    <rect id="Rectangle_4251" data-name="Rectangle 4251" width="2.789" height="23.545" transform="translate(1161.367 283.062)" fill="#fff" stroke="#fff" stroke-width="1"/>
    <path id="Path_1161" data-name="Path 1161" d="M574.994,227.578v-6.521h-1.08v10.39h3.866v-3.869Z" transform="translate(590.235 85.231)" fill="#fff" stroke="#fff" stroke-width="1"/>
    <rect id="Rectangle_4252" data-name="Rectangle 4252" width="2.789" height="10.39" transform="translate(1161.367 306.288)" fill="#fff" stroke="#fff" stroke-width="1"/>
    <path id="Path_1162" data-name="Path 1162" d="M491,264.658,461.032,294.63A3.865,3.865,0,1,0,466.5,300.1l29.978-29.969A3.868,3.868,0,1,0,491,264.658Z" transform="translate(466.845 129.751)" fill="#fff" stroke="#fff" stroke-width="1"/>
    <path id="Path_1163" data-name="Path 1163" d="M498.877,271.661a3.866,3.866,0,0,0-3.865,3.869v42.387a3.865,3.865,0,1,0,7.731,0V275.53A3.867,3.867,0,0,0,498.877,271.661Z" transform="translate(504.862 138.203)" fill="#fff" stroke="#fff" stroke-width="1"/>
    <path id="Path_1164" data-name="Path 1164" d="M522.039,263.881a3.866,3.866,0,1,0-5.471,5.463l29.969,29.978a3.868,3.868,0,0,0,5.469-5.469Z" transform="translate(526.927 128.934)" fill="#fff" stroke="#fff" stroke-width="1"/>
    <path id="Path_1165" data-name="Path 1165" d="M498.555,190.242a3.87,3.87,0,0,0,3.867-3.87V143.983a3.866,3.866,0,1,0-7.733,0v42.389A3.869,3.869,0,0,0,498.555,190.242Z" transform="translate(504.514 0)" fill="#fff" stroke="#fff" stroke-width="1"/>
    <path id="Path_1166" data-name="Path 1166" d="M491,191.555a3.867,3.867,0,1,0,5.472-5.465L466.5,156.117a3.865,3.865,0,0,0-5.465,5.465Z" transform="translate(466.845 16.147)" fill="#fff" stroke="#fff" stroke-width="1"/>
    <path id="Path_1167" data-name="Path 1167" d="M519.3,191.913a3.885,3.885,0,0,0,2.743-1.135L552.008,160.8a3.865,3.865,0,1,0-5.467-5.465l-29.974,29.973a3.867,3.867,0,0,0,2.728,6.6Z" transform="translate(526.927 15.303)" fill="#fff" stroke="#fff" stroke-width="1"/>
    <path id="Path_1168" data-name="Path 1168" d="M387.647,213.129c-.232.219-.451.448-.663.686.223.031.442.063.663.1Z" transform="translate(387.986 76.923)" fill="#fff" stroke="#fff" stroke-width="1"/>
    <path id="Path_1169" data-name="Path 1169" d="M399.078,228.082a15.213,15.213,0,0,1-9.095-3.016c-2.073-.307-4.168-.611-6.3-.912a19.13,19.13,0,0,0,15.39,7.8h30.839q-9.778-1.934-21.006-3.867Z" transform="translate(384.386 88.506)" fill="#fff" stroke="#fff" stroke-width="1"/>
    <path id="Path_1170" data-name="Path 1170" d="M396.763,211.782h38.931v-3.867H396.763a19.048,19.048,0,0,0-10.943,3.452c2.311.325,4.6.653,6.844.987A15.269,15.269,0,0,1,396.763,211.782Z" transform="translate(386.69 71.416)" fill="#fff" stroke="#fff" stroke-width="1"/>
    <path id="Path_1171" data-name="Path 1171" d="M386.065,220.762q-2.009-.282-4.053-.557a19.037,19.037,0,0,0,3.5,8.238c2.128.3,4.222.6,6.3.912A15.285,15.285,0,0,1,386.065,220.762Z" transform="translate(382.6 84.341)" fill="#fff" stroke="#fff" stroke-width="1"/>
    <path id="Path_1172" data-name="Path 1172" d="M424.877,226.037h-29.1q11.22,1.918,21.006,3.867h8.092Z" transform="translate(397.482 90.507)" fill="#fff" stroke="#fff" stroke-width="1"/>
    <path id="Path_1173" data-name="Path 1173" d="M382.911,216.493c1.379.186,2.768.371,4.126.559q.363-.563.774-1.1c.035-.046.069-.094.1-.14a15.334,15.334,0,0,1,2.733-2.683l.108-.081a15.2,15.2,0,0,1,5.067-2.5c-2.247-.334-4.533-.661-6.844-.987A19.291,19.291,0,0,0,382.911,216.493Z" transform="translate(383.57 73.148)" fill="#fff" stroke="#fff" stroke-width="1"/>
    <path id="Path_1174" data-name="Path 1174" d="M381.878,223.306q1.949.263,3.865.532v-2.161a15.306,15.306,0,0,1,.129-1.892c.023-.177.052-.35.081-.526q.113-.707.288-1.391c.04-.152.073-.3.117-.455a15.289,15.289,0,0,1,1.454-3.4c.058-.1.117-.192.177-.288s.111-.19.169-.282c-1.358-.188-2.747-.373-4.126-.559a19.009,19.009,0,0,0-2.155,8.788Z" transform="translate(382.458 76.629)" fill="#fff" stroke="#fff" stroke-width="1"/>
    <path id="Path_1175" data-name="Path 1175" d="M385.743,218.415q-1.918-.266-3.865-.532v1.711a19.161,19.161,0,0,0,.28,3.133q2.043.275,4.053.557a15.262,15.262,0,0,1-.467-3.69Z" transform="translate(382.459 81.912)" fill="#fff" stroke="#fff" stroke-width="1"/>
    <path id="Path_1176" data-name="Path 1176" d="M432.131,213.634v-3.865H393.2a15.269,15.269,0,0,0-4.1.572q10.8,1.6,20.557,3.294Z" transform="translate(390.245 73.371)" fill="#fff" stroke="#fff" stroke-width="1"/>
    <path id="Path_1177" data-name="Path 1177" d="M387.986,214.378v2.1a11.385,11.385,0,0,1,7.852-3.144H412.3q-9.778-1.683-20.557-3.294a15.2,15.2,0,0,0-5.067,2.5,15.359,15.359,0,0,1,1.594-1.053A15.528,15.528,0,0,0,387.986,214.378Z" transform="translate(387.63 73.65)" fill="#fff" stroke="#fff" stroke-width="1"/>
    <path id="Path_1178" data-name="Path 1178" d="M388.043,211.279a15.333,15.333,0,0,0-2.733,2.683A15.405,15.405,0,0,1,388.043,211.279Z" transform="translate(386.173 74.966)" fill="#fff" stroke="#fff" stroke-width="1"/>
    <path id="Path_1179" data-name="Path 1179" d="M385.663,212.632q-.41.532-.774,1.1l.021,0C385.15,213.356,385.392,212.984,385.663,212.632Z" transform="translate(385.719 76.398)" fill="#fff" stroke="#fff" stroke-width="1"/>
    <path id="Path_1180" data-name="Path 1180" d="M383.832,216.667c.075-.471.171-.937.288-1.391Q383.945,215.961,383.832,216.667Z" transform="translate(384.576 79.182)" fill="#fff" stroke="#fff" stroke-width="1"/>
    <path id="Path_1181" data-name="Path 1181" d="M384.026,216.826a15.2,15.2,0,0,1,1.454-3.4A15.291,15.291,0,0,0,384.026,216.826Z" transform="translate(384.785 77.229)" fill="#fff" stroke="#fff" stroke-width="1"/>
    <path id="Path_1182" data-name="Path 1182" d="M383.731,218.087a15.306,15.306,0,0,1,.129-1.892A15.306,15.306,0,0,0,383.731,218.087Z" transform="translate(384.467 80.148)" fill="#fff" stroke="#fff" stroke-width="1"/>
    <path id="Path_1183" data-name="Path 1183" d="M385,213.161l-.021,0c-.058.092-.113.188-.169.282C384.866,213.343,384.937,213.255,385,213.161Z" transform="translate(385.632 76.954)" fill="#fff" stroke="#fff" stroke-width="1"/>
    <path id="Path_1184" data-name="Path 1184" d="M385.26,212.7c.035-.046.069-.094.1-.14C385.329,212.611,385.3,212.659,385.26,212.7Z" transform="translate(386.121 76.331)" fill="#fff" stroke="#fff" stroke-width="1"/>
    <path id="Path_1185" data-name="Path 1185" d="M386.62,211.321l.109-.081Z" transform="translate(387.593 74.935)" fill="#fff" stroke="#fff" stroke-width="1"/>
    <path id="Path_1186" data-name="Path 1186" d="M384.723,213.58c.056-.1.117-.192.177-.288C384.84,213.388,384.781,213.482,384.723,213.58Z" transform="translate(385.54 77.097)" fill="#fff" stroke="#fff" stroke-width="1"/>
    <path id="Path_1187" data-name="Path 1187" d="M383.793,216.469c.023-.177.052-.35.081-.526C383.845,216.118,383.816,216.291,383.793,216.469Z" transform="translate(384.534 79.889)" fill="#fff" stroke="#fff" stroke-width="1"/>
    <path id="Path_1188" data-name="Path 1188" d="M383.97,215.513c.038-.152.073-.3.117-.455C384.043,215.208,384.01,215.36,383.97,215.513Z" transform="translate(384.726 78.956)" fill="#fff" stroke="#fff" stroke-width="1"/>
    <path id="Path_1189" data-name="Path 1189" d="M395.8,227.607h9.833q-9.018-1.543-18.928-3.016A15.213,15.213,0,0,0,395.8,227.607Z" transform="translate(387.672 88.988)" fill="#fff" stroke="#fff" stroke-width="1"/>
    <path id="Path_1190" data-name="Path 1190" d="M430.143,228.213H398.788a11.448,11.448,0,0,1-10.586-7.134q-2.106-.307-4.247-.607a15.285,15.285,0,0,0,5.739,8.592q9.894,1.467,18.928,3.016h29.1v-2.347C435.276,229.229,432.74,228.722,430.143,228.213Z" transform="translate(384.669 84.611)" fill="#fff" stroke="#fff" stroke-width="1"/>
    <path id="Path_1191" data-name="Path 1191" d="M389.248,216.415c.213-.238.432-.467.663-.686v-2.1a15.532,15.532,0,0,1,.279-2.891,15.37,15.37,0,0,0-1.594,1.053l-.109.081a15.405,15.405,0,0,0-2.733,2.683c-.036.046-.069.094-.1.14-.271.353-.513.724-.753,1.1C386.37,216,387.8,216.207,389.248,216.415Z" transform="translate(385.727 74.382)" fill="#fff" stroke="#fff" stroke-width="1"/>
    <path id="Path_1192" data-name="Path 1192" d="M390.517,213.783c-1.444-.209-2.879-.419-4.349-.624-.06.094-.131.181-.19.277s-.121.192-.177.288a15.2,15.2,0,0,0-1.454,3.4c-.044.15-.079.3-.117.455-.117.455-.213.92-.288,1.391-.029.175-.058.348-.081.526a15.305,15.305,0,0,0-.129,1.892v2.161c1.3.182,2.593.361,3.867.547v-2.708A11.365,11.365,0,0,1,390.517,213.783Z" transform="translate(384.462 76.913)" fill="#fff" stroke="#fff" stroke-width="1"/>
    <path id="Path_1193" data-name="Path 1193" d="M387.6,219.317v-.632c-1.275-.186-2.572-.365-3.867-.547v1.179a15.262,15.262,0,0,0,.467,3.69q2.143.3,4.247.607A11.346,11.346,0,0,1,387.6,219.317Z" transform="translate(384.464 82.18)" fill="#fff" stroke="#fff" stroke-width="1"/>
    <path id="Path_1194" data-name="Path 1194" d="M406.1,224.183c2.6.509,5.134,1.016,7.576,1.521v-1.521Z" transform="translate(408.661 88.565)" fill="#fff" stroke="#fff" stroke-width="1"/>
    <path id="Path_1195" data-name="Path 1195" d="M413.6,211.947a12.638,12.638,0,0,1,12.641-12.635h19.12v-3.867H426.24a16.527,16.527,0,0,0-16.511,16.5v9.51h3.87Z" transform="translate(412.568 58.213)" fill="#fff" stroke="#fff" stroke-width="1"/>
    <path id="Path_1196" data-name="Path 1196" d="M436.868,249.178H426.24A12.638,12.638,0,0,1,413.6,236.537V229.5c-1.272-.273-2.547-.544-3.87-.82v7.86a16.532,16.532,0,0,0,16.511,16.511h19.12v-3.869Z" transform="translate(412.568 93.185)" fill="#fff" stroke="#fff" stroke-width="1"/>
    <path id="Path_1197" data-name="Path 1197" d="M413.6,227.891h-3.87v1.64c1.323.275,2.6.547,3.87.82Z" transform="translate(412.593 92.467)" fill="#fff" stroke="#fff" stroke-width="1"/>
    <path id="Path_1198" data-name="Path 1198" d="M413.6,216.576v-4.954h-3.87v4.166C411.049,216.051,412.32,216.313,413.6,216.576Z" transform="translate(412.593 75.319)" fill="#fff" stroke="#fff" stroke-width="1"/>
    <path id="Path_1199" data-name="Path 1199" d="M413.6,214.407c-1.279-.263-2.549-.526-3.87-.789v7.831c1.32.265,2.593.53,3.87.795Z" transform="translate(412.593 77.407)" fill="#fff" stroke="#fff" stroke-width="1"/>
    <path id="Path_1200" data-name="Path 1200" d="M413.6,225.056v-6.888c-1.277-.265-2.549-.53-3.87-.795v7.683Z" transform="translate(412.593 81.365)" fill="#fff" stroke="#fff" stroke-width="1"/>
    <path id="Path_1201" data-name="Path 1201" d="M413.6,221.056h-3.87V224.3c1.323.271,2.595.542,3.87.811Z" transform="translate(412.593 85.26)" fill="#fff" stroke="#fff" stroke-width="1"/>
    <path id="Path_1202" data-name="Path 1202" d="M409.729,222.61v3.281h3.87v-2.47C412.324,223.152,411.052,222.881,409.729,222.61Z" transform="translate(412.593 86.9)" fill="#fff" stroke="#fff" stroke-width="1"/>
    <rect id="Rectangle_4253" data-name="Rectangle 4253" width="3.869" height="3.867" transform="translate(822.323 279.333)" fill="#fff" stroke="#fff" stroke-width="1"/>
    <rect id="Rectangle_4254" data-name="Rectangle 4254" width="3.869" height="3.866" transform="translate(822.323 316.544)" fill="#fff" stroke="#fff" stroke-width="1"/>
    <rect id="Rectangle_4255" data-name="Rectangle 4255" width="3.869" height="3.864" transform="translate(822.323 283.14)" fill="#fff" stroke="#fff" stroke-width="1"/>
    <path id="Path_1203" data-name="Path 1203" d="M413.6,225.723c-1.275-.269-2.547-.538-3.87-.811v2.347h3.87Z" transform="translate(412.593 89.329)" fill="#fff" stroke="#fff" stroke-width="1"/>
    <path id="Path_1204" data-name="Path 1204" d="M409.729,224.183V225.7c1.323.273,2.595.542,3.87.811v-2.332Z" transform="translate(412.593 88.561)" fill="#fff" stroke="#fff" stroke-width="1"/>
    <path id="Path_1205" data-name="Path 1205" d="M418.382,236.652a12.6,12.6,0,0,0,9.089,3.865h8.492v-3.865Z" transform="translate(421.944 101.689)" fill="#fff" stroke="#fff" stroke-width="1"/>
    <path id="Path_1206" data-name="Path 1206" d="M418.382,201.166h17.581V197.3h-8.492A12.6,12.6,0,0,0,418.382,201.166Z" transform="translate(421.944 60.236)" fill="#fff" stroke="#fff" stroke-width="1"/>
    <path id="Path_1207" data-name="Path 1207" d="M415.449,209.934a8.785,8.785,0,0,1,8.776-8.767h1.539a12.6,12.6,0,0,1,9.089-3.867H424.225a12.638,12.638,0,0,0-12.641,12.635v9.51h3.865Z" transform="translate(414.585 60.177)" fill="#fff" stroke="#fff" stroke-width="1"/>
    <path id="Path_1208" data-name="Path 1208" d="M425.764,244.886h-1.539a8.786,8.786,0,0,1-8.776-8.776V229.9c-1.252-.275-2.56-.555-3.865-.832v7.04a12.638,12.638,0,0,0,12.641,12.641h10.628A12.6,12.6,0,0,1,425.764,244.886Z" transform="translate(414.585 93.623)" fill="#fff" stroke="#fff" stroke-width="1"/>
    <path id="Path_1209" data-name="Path 1209" d="M415.449,227.891h-3.865v2.459c1.306.277,2.614.557,3.865.832Z" transform="translate(414.6 92.463)" fill="#fff" stroke="#fff" stroke-width="1"/>
    <path id="Path_1210" data-name="Path 1210" d="M415.449,217.375v-5.753h-3.865v4.954C412.892,216.843,414.187,217.11,415.449,217.375Z" transform="translate(414.6 75.316)" fill="#fff" stroke="#fff" stroke-width="1"/>
    <path id="Path_1211" data-name="Path 1211" d="M415.449,222.641V214.8c-1.262-.265-2.557-.532-3.865-.8v7.837C412.892,222.105,414.189,222.374,415.449,222.641Z" transform="translate(414.6 77.805)" fill="#fff" stroke="#fff" stroke-width="1"/>
    <path id="Path_1212" data-name="Path 1212" d="M415.449,218.561c-1.26-.267-2.557-.536-3.865-.807v6.888h3.865Z" transform="translate(414.6 81.769)" fill="#fff" stroke="#fff" stroke-width="1"/>
    <path id="Path_1213" data-name="Path 1213" d="M411.584,221.056v4.053c1.306.277,2.61.553,3.865.826v-4.879Z" transform="translate(414.6 85.256)" fill="#fff" stroke="#fff" stroke-width="1"/>
    <path id="Path_1214" data-name="Path 1214" d="M411.584,223v2.47h3.865v-1.644C414.194,223.552,412.89,223.276,411.584,223Z" transform="translate(414.6 87.313)" fill="#fff" stroke="#fff" stroke-width="1"/>
    <rect id="Rectangle_4256" data-name="Rectangle 4256" width="3.865" height="3.867" transform="translate(826.185 279.333)" fill="#fff" stroke="#fff" stroke-width="1"/>
    <rect id="Rectangle_4257" data-name="Rectangle 4257" width="3.865" height="3.866" transform="translate(826.185 316.544)" fill="#fff" stroke="#fff" stroke-width="1"/>
    <rect id="Rectangle_4258" data-name="Rectangle 4258" width="3.865" height="3.864" transform="translate(826.185 283.14)" fill="#fff" stroke="#fff" stroke-width="1"/>
    <path id="Path_1215" data-name="Path 1215" d="M411.584,225.3v1.535h3.865v-.709C414.194,225.854,412.89,225.578,411.584,225.3Z" transform="translate(414.6 89.743)" fill="#fff" stroke="#fff" stroke-width="1"/>
    <path id="Path_1216" data-name="Path 1216" d="M415.449,224.183h-3.865v2.332c1.306.277,2.61.553,3.865.826Z" transform="translate(414.6 88.558)" fill="#fff" stroke="#fff" stroke-width="1"/>
    <path id="Path_1217" data-name="Path 1217" d="M422.786,207.475v5.117h2.787a3.806,3.806,0,0,1,1.083.173v-5.29a3.866,3.866,0,1,0-7.733,0v5.117h3.863Z" transform="translate(422.538 66.863)" fill="#fff" stroke="#fff" stroke-width="1"/>
    <path id="Path_1218" data-name="Path 1218" d="M422.741,233.789a3.839,3.839,0,0,0,2.97-1.416c-2.117-.528-4.358-1.074-6.746-1.642A3.859,3.859,0,0,0,422.741,233.789Z" transform="translate(422.584 95.456)" fill="#fff" stroke="#fff" stroke-width="1"/>
    <path id="Path_1219" data-name="Path 1219" d="M426.656,227.837l-.073-.019a3.753,3.753,0,0,1-1.01.152h-2.787v0h-3.863v5.117a3.953,3.953,0,0,0,.088.807c2.388.567,4.629,1.114,6.746,1.642a3.827,3.827,0,0,0,.9-2.449Z" transform="translate(422.538 92.365)" fill="#fff" stroke="#fff" stroke-width="1"/>
    <path id="Path_1220" data-name="Path 1220" d="M422.668,227.848v-.04l-.073.021Z" transform="translate(426.517 92.391)" fill="#fff" stroke="#fff" stroke-width="1"/>
    <path id="Path_1221" data-name="Path 1221" d="M421.706,211.622h-2.783v8.252c.941.213,1.873.426,2.783.636Z" transform="translate(422.542 75.303)" fill="#fff" stroke="#fff" stroke-width="1"/>
    <path id="Path_1222" data-name="Path 1222" d="M421.706,216.214c-.909-.211-1.842-.423-2.783-.636v7.872c.943.217,1.873.432,2.783.645Z" transform="translate(422.542 79.471)" fill="#fff" stroke="#fff" stroke-width="1"/>
    <path id="Path_1223" data-name="Path 1223" d="M421.706,222.906V220c-.909-.213-1.84-.428-2.783-.645v3.554Z" transform="translate(422.542 83.467)" fill="#fff" stroke="#fff" stroke-width="1"/>
    <rect id="Rectangle_4259" data-name="Rectangle 4259" width="2.783" height="6.521" transform="translate(841.465 306.305)" fill="#fff" stroke="#fff" stroke-width="1"/>
    <rect id="Rectangle_4260" data-name="Rectangle 4260" width="3.863" height="3.867" transform="translate(841.464 279.333)" fill="#fff" stroke="#fff" stroke-width="1"/>
    <path id="Path_1224" data-name="Path 1224" d="M420.775,207.915v3.867h2.787v13.659c.359.086.73.171,1.083.257v-17.61a3.806,3.806,0,0,0-1.083-.173Z" transform="translate(424.544 71.365)" fill="#fff" stroke="#fff" stroke-width="1"/>
    <path id="Path_1225" data-name="Path 1225" d="M423.194,224.467v-7.893c-.353-.086-.724-.171-1.083-.257v7.891C422.47,224.3,422.841,224.384,423.194,224.467Z" transform="translate(425.992 80.251)" fill="#fff" stroke="#fff" stroke-width="1"/>
    <path id="Path_1226" data-name="Path 1226" d="M420.775,228.454h2.787a3.751,3.751,0,0,0,1.01-.152c-1.231-.3-2.478-.611-3.8-.928Z" transform="translate(424.544 91.928)" fill="#fff" stroke="#fff" stroke-width="1"/>
    <path id="Path_1227" data-name="Path 1227" d="M418.923,226.935v1.994h3.863v-1.081C421.547,227.55,420.239,227.244,418.923,226.935Z" transform="translate(422.541 91.462)" fill="#fff" stroke="#fff" stroke-width="1"/>
    <path id="Path_1228" data-name="Path 1228" d="M422.111,220.1v11.052c.359.09.73.179,1.083.267v-11.06C422.841,220.275,422.47,220.188,422.111,220.1Z" transform="translate(425.992 84.22)" fill="#fff" stroke="#fff" stroke-width="1"/>
    <path id="Path_1229" data-name="Path 1229" d="M423.562,226.731h-2.787v2.787c1.318.317,2.566.624,3.8.928l.073-.021v-4.76c-.353-.088-.724-.177-1.083-.267Z" transform="translate(424.544 89.829)" fill="#fff" stroke="#fff" stroke-width="1"/>
    <path id="Path_1230" data-name="Path 1230" d="M422.786,226.037h-3.863v1.873c1.316.309,2.624.615,3.863.914Z" transform="translate(422.541 90.512)" fill="#fff" stroke="#fff" stroke-width="1"/>
    <path id="Path_1231" data-name="Path 1231" d="M423.562,223.428V209.769h-2.787v13C421.735,222.992,422.64,223.209,423.562,223.428Z" transform="translate(424.545 73.333)" fill="#fff" stroke="#fff" stroke-width="1"/>
    <path id="Path_1232" data-name="Path 1232" d="M421.706,213.634v8.888c.357.081.73.165,1.081.248v-13h-3.863v3.865Z" transform="translate(422.541 73.336)" fill="#fff" stroke="#fff" stroke-width="1"/>
    <path id="Path_1233" data-name="Path 1233" d="M420.775,223.885c.962.225,1.865.444,2.787.665v-7.891c-.922-.219-1.827-.436-2.787-.657Z" transform="translate(424.545 79.917)" fill="#fff" stroke="#fff" stroke-width="1"/>
    <path id="Path_1234" data-name="Path 1234" d="M421.337,224.014v-7.883c-.35-.083-.724-.167-1.081-.248v7.881C420.612,223.847,420.989,223.933,421.337,224.014Z" transform="translate(423.986 79.794)" fill="#fff" stroke="#fff" stroke-width="1"/>
    <path id="Path_1235" data-name="Path 1235" d="M423.562,222.441v-1.994c-.922-.221-1.825-.44-2.787-.665v2.66Z" transform="translate(424.545 83.923)" fill="#fff" stroke="#fff" stroke-width="1"/>
    <path id="Path_1236" data-name="Path 1236" d="M420.257,222.571h1.081v-2.66c-.348-.081-.726-.167-1.081-.25Z" transform="translate(423.986 83.795)" fill="#fff" stroke="#fff" stroke-width="1"/>
    <path id="Path_1237" data-name="Path 1237" d="M421.706,221.056v6.523h-2.783v.939c1.316.309,2.624.615,3.863.916v-8.377Z" transform="translate(422.541 85.24)" fill="#fff" stroke="#fff" stroke-width="1"/>
    <path id="Path_1238" data-name="Path 1238" d="M420.775,229.433c.968.232,1.867.455,2.787.68v-9.057h-2.787Z" transform="translate(424.545 85.237)" fill="#fff" stroke="#fff" stroke-width="1"/>
    <path id="Path_1239" data-name="Path 1239" d="M420.775,227.085h2.787v-1.333c-.92-.225-1.819-.448-2.787-.68Z" transform="translate(424.545 89.499)" fill="#fff" stroke="#fff" stroke-width="1"/>
    <path id="Path_1240" data-name="Path 1240" d="M422.786,225.549c-1.239-.3-2.547-.607-3.863-.916v2.929h3.863Z" transform="translate(422.541 89.033)" fill="#fff" stroke="#fff" stroke-width="1"/>
    <path id="Path_1241" data-name="Path 1241" d="M430.677,202.451a15.975,15.975,0,0,1,15.977-15.981h55.158a16.365,16.365,0,0,1,2.7-3.869H446.654a19.868,19.868,0,0,0-19.844,19.85v6.942h3.867Z" transform="translate(431.012 46.14)" fill="#fff" stroke="#fff" stroke-width="1"/>
    <path id="Path_1242" data-name="Path 1242" d="M501.814,263.287h-55.16a15.975,15.975,0,0,1-15.977-15.979V240.36H426.81v6.948a19.864,19.864,0,0,0,19.844,19.844h57.857A16.284,16.284,0,0,1,501.814,263.287Z" transform="translate(431.012 105.463)" fill="#fff" stroke="#fff" stroke-width="1"/>
    <rect id="Rectangle_4261" data-name="Rectangle 4261" width="3.867" height="3.867" transform="translate(857.885 255.534)" fill="#fff" stroke="#fff" stroke-width="1"/>
    <rect id="Rectangle_4262" data-name="Rectangle 4262" width="3.867" height="3.87" transform="translate(857.885 342.146)" fill="#fff" stroke="#fff" stroke-width="1"/>
    <path id="Path_1243" data-name="Path 1243" d="M426.81,197.3v85.955h3.867V197.3Z" transform="translate(431.075 59.937)" fill="#fff" stroke="#fff" stroke-width="1"/>
    <path id="Path_1244" data-name="Path 1244" d="M432.533,211.246v-10.81a12.125,12.125,0,0,1,12.107-12.117h45.652v-3.863H444.641a15.975,15.975,0,0,0-15.977,15.981v6.942A3.868,3.868,0,0,1,432.533,211.246Z" transform="translate(433.031 48.155)" fill="#fff" stroke="#fff" stroke-width="1"/>
    <path id="Path_1245" data-name="Path 1245" d="M444.641,261.436a12.126,12.126,0,0,1-12.107-12.113V238.5a3.867,3.867,0,0,1-3.869,3.87v6.948A15.975,15.975,0,0,0,444.641,265.3h45.652v-3.865Z" transform="translate(433.031 103.511)" fill="#fff" stroke="#fff" stroke-width="1"/>
    <path id="Path_1246" data-name="Path 1246" d="M432.533,285.267V199.312a3.868,3.868,0,0,0-3.869-3.867v93.692A3.867,3.867,0,0,0,432.533,285.267Z" transform="translate(433.08 57.961)" fill="#fff" stroke="#fff" stroke-width="1"/>
    <path id="Path_1247" data-name="Path 1247" d="M466.35,188.319a16.552,16.552,0,0,1,1.364-3.863h-9.506v3.863Z" transform="translate(465.041 48.155)" fill="#fff" stroke="#fff" stroke-width="1"/>
    <path id="Path_1248" data-name="Path 1248" d="M458.208,249.5v3.865h9.508a16.548,16.548,0,0,1-1.366-3.865Z" transform="translate(465.041 115.22)" fill="#fff" stroke="#fff" stroke-width="1"/>
    <path id="Path_1249" data-name="Path 1249" d="M468.783,184.668c-.1-.142-.219-.269-.327-.407a7.259,7.259,0,0,0-.805.407h1.133Z" transform="translate(475.264 47.943)" fill="#fff" stroke="#fff" stroke-width="1"/>
    <path id="Path_1250" data-name="Path 1250" d="M468.349,251.351h-.7a7.677,7.677,0,0,0,.807.407c.108-.138.225-.265.33-.407Z" transform="translate(475.262 117.193)" fill="#fff" stroke="#fff" stroke-width="1"/>
    <path id="Path_1251" data-name="Path 1251" d="M471.92,184.625c.1-.029.2-.054.3-.081a10.849,10.849,0,0,1,1.076-.234c.127-.021.25-.044.378-.06a11.088,11.088,0,0,1,1.425-.1c6.431,0,11.646,5.534,11.646,12.355l0,124.516c0,6.825-5.213,12.355-11.644,12.355a11.13,11.13,0,0,1-1.427-.1c-.123-.017-.246-.04-.367-.061a11.118,11.118,0,0,1-1.1-.236c-.094-.027-.188-.05-.28-.077a11.042,11.042,0,0,1-1.368-.5h-6.5A15.132,15.132,0,0,0,475.1,337.24c8.553,0,15.509-7.274,15.509-16.221l0-124.516c0-8.945-6.953-16.225-15.511-16.225a15.138,15.138,0,0,0-11.039,4.846h6.5A10.994,10.994,0,0,1,471.92,184.625Z" transform="translate(471.355 43.617)" fill="#fff" stroke="#fff" stroke-width="1"/>
    <path id="Path_1252" data-name="Path 1252" d="M465.779,189.954a13.008,13.008,0,0,1,.517-3.646h-3.972a16.767,16.767,0,0,0-.411,3.646V314.471a16.82,16.82,0,0,0,.411,3.65H466.3a13.048,13.048,0,0,1-.517-3.65Z" transform="translate(469.055 48.244)" fill="#fff" stroke="#fff" stroke-width="1"/>
    <path id="Path_1253" data-name="Path 1253" d="M467.269,186.47a11.789,11.789,0,0,1,4.689-3.869h-6.5a16.365,16.365,0,0,0-2.7,3.869Z" transform="translate(469.971 46.14)" fill="#fff" stroke="#fff" stroke-width="1"/>
    <path id="Path_1254" data-name="Path 1254" d="M470.693,254.536l-.015-.01h0a11.933,11.933,0,0,1-3.408-3.175h-4.5a16.284,16.284,0,0,0,2.7,3.865h6.5A11.036,11.036,0,0,1,470.693,254.536Z" transform="translate(469.972 117.172)" fill="#fff" stroke="#fff" stroke-width="1"/>
    <path id="Path_1255" data-name="Path 1255" d="M466.083,188.319a12.562,12.562,0,0,1,1.9-3.863h-4.5a16.552,16.552,0,0,0-1.364,3.863Z" transform="translate(469.267 48.155)" fill="#fff" stroke="#fff" stroke-width="1"/>
    <path id="Path_1256" data-name="Path 1256" d="M466.083,249.5h-3.972a16.548,16.548,0,0,0,1.366,3.865h4.5A12.6,12.6,0,0,1,466.083,249.5Z" transform="translate(469.267 115.22)" fill="#fff" stroke="#fff" stroke-width="1"/>
    <path id="Path_1257" data-name="Path 1257" d="M468.667,182.235a11.065,11.065,0,0,1,1.425-.1A11.092,11.092,0,0,0,468.667,182.235Z" transform="translate(476.364 45.632)" fill="#fff" stroke="#fff" stroke-width="1"/>
    <path id="Path_1258" data-name="Path 1258" d="M467.174,253.2a11.026,11.026,0,0,0,1.368.5,11.03,11.03,0,0,1-1.345-.5Z" transform="translate(474.749 119.144)" fill="#fff" stroke="#fff" stroke-width="1"/>
    <path id="Path_1259" data-name="Path 1259" d="M469.061,253.716a10.693,10.693,0,0,1-1.1-.236A11.135,11.135,0,0,0,469.061,253.716Z" transform="translate(475.604 119.437)" fill="#fff" stroke="#fff" stroke-width="1"/>
    <path id="Path_1260" data-name="Path 1260" d="M467.97,182.445a10.854,10.854,0,0,1,1.076-.234A10.854,10.854,0,0,0,467.97,182.445Z" transform="translate(475.61 45.717)" fill="#fff" stroke="#fff" stroke-width="1"/>
    <path id="Path_1261" data-name="Path 1261" d="M470.093,253.724a11.1,11.1,0,0,1-1.427-.1A11.124,11.124,0,0,0,470.093,253.724Z" transform="translate(476.363 119.587)" fill="#fff" stroke="#fff" stroke-width="1"/>
    <path id="Path_1262" data-name="Path 1262" d="M468.538,182.362a10.994,10.994,0,0,0-1.366.5h.023A11.13,11.13,0,0,1,468.538,182.362Z" transform="translate(474.746 45.881)" fill="#fff" stroke="#fff" stroke-width="1"/>
    <path id="Path_1263" data-name="Path 1263" d="M467.63,314.471V189.954a8.974,8.974,0,0,1,.786-3.646h-4.132a13.01,13.01,0,0,0-.517,3.646V314.471a13.051,13.051,0,0,0,.517,3.65h4.132A9.009,9.009,0,0,1,467.63,314.471Z" transform="translate(471.06 48.244)" fill="#fff" stroke="#fff" stroke-width="1"/>
    <path id="Path_1264" data-name="Path 1264" d="M471.412,251.758a7.683,7.683,0,0,1-.807-.407h-5.68a11.934,11.934,0,0,0,3.409,3.175A11.929,11.929,0,0,0,471.412,251.758Z" transform="translate(472.311 117.176)" fill="#fff" stroke="#fff" stroke-width="1"/>
    <path id="Path_1265" data-name="Path 1265" d="M466.566,252.878a11.041,11.041,0,0,0,1.268.68h.023A11.894,11.894,0,0,1,466.566,252.878Z" transform="translate(474.091 118.8)" fill="#fff" stroke="#fff" stroke-width="1"/>
    <path id="Path_1266" data-name="Path 1266" d="M471.416,186.064a11.919,11.919,0,0,0-3.081-2.772,11.243,11.243,0,0,1,1.3-.69h-.023a11.788,11.788,0,0,0-4.689,3.869h5.686A7.272,7.272,0,0,1,471.416,186.064Z" transform="translate(472.31 46.14)" fill="#fff" stroke="#fff" stroke-width="1"/>
    <path id="Path_1267" data-name="Path 1267" d="M468.147,249.5h-4.132a12.6,12.6,0,0,0,1.9,3.865h5.68A8.219,8.219,0,0,1,468.147,249.5Z" transform="translate(471.325 115.22)" fill="#fff" stroke="#fff" stroke-width="1"/>
    <path id="Path_1268" data-name="Path 1268" d="M468.147,188.319a8.192,8.192,0,0,1,3.45-3.863h-5.686a12.563,12.563,0,0,0-1.9,3.863Z" transform="translate(471.325 48.155)" fill="#fff" stroke="#fff" stroke-width="1"/>
    <path id="Path_1269" data-name="Path 1269" d="M467.827,182.4c.1-.029.2-.054.3-.081C468.025,182.35,467.925,182.375,467.827,182.4Z" transform="translate(475.456 45.838)" fill="#fff" stroke="#fff" stroke-width="1"/>
    <path id="Path_1270" data-name="Path 1270" d="M468.109,253.52c-.094-.027-.188-.05-.28-.077C467.922,253.47,468.016,253.493,468.109,253.52Z" transform="translate(475.459 119.399)" fill="#fff" stroke="#fff" stroke-width="1"/>
    <path id="Path_1271" data-name="Path 1271" d="M468.486,182.242c.127-.021.25-.044.378-.061C468.736,182.2,468.613,182.222,468.486,182.242Z" transform="translate(476.169 45.685)" fill="#fff" stroke="#fff" stroke-width="1"/>
    <path id="Path_1272" data-name="Path 1272" d="M468.857,253.653c-.123-.017-.246-.04-.367-.06C468.611,253.614,468.734,253.637,468.857,253.653Z" transform="translate(476.173 119.557)" fill="#fff" stroke="#fff" stroke-width="1"/>
    <path id="Path_1273" data-name="Path 1273" d="M466.559,252.874l.016.008-.015-.009Z" transform="translate(474.084 118.799)" fill="#fff" stroke="#fff" stroke-width="1"/>
    <path id="Path_1274" data-name="Path 1274" d="M468.854,183.109a3.867,3.867,0,0,1,3.761,2.991,8.241,8.241,0,0,1,6.869,8.388l0,124.516a8.243,8.243,0,0,1-6.867,8.394,3.866,3.866,0,0,1-3.759,2.987h-1.667a11.032,11.032,0,0,0,1.345.5c.092.027.186.05.28.077a10.689,10.689,0,0,0,1.1.236c.121.021.244.044.367.06a11.094,11.094,0,0,0,1.427.1c6.431,0,11.644-5.53,11.644-12.355l0-124.516c0-6.821-5.215-12.355-11.646-12.355a11.065,11.065,0,0,0-1.425.1c-.127.017-.25.04-.378.061a10.85,10.85,0,0,0-1.076.234c-.1.027-.2.052-.3.081a11.132,11.132,0,0,0-1.343.5Z" transform="translate(474.745 45.632)" fill="#fff" stroke="#fff" stroke-width="1"/>
    <path id="Path_1275" data-name="Path 1275" d="M473.292,185.592a3.866,3.866,0,0,0-3.761-2.991h-1.671a11.243,11.243,0,0,0-1.3.69,11.917,11.917,0,0,1,3.081,2.772,7.167,7.167,0,0,1,2.741-.572A7.289,7.289,0,0,1,473.292,185.592Z" transform="translate(474.078 46.14)" fill="#fff" stroke="#fff" stroke-width="1"/>
    <path id="Path_1276" data-name="Path 1276" d="M469.532,255a3.866,3.866,0,0,0,3.759-2.987,6.926,6.926,0,0,1-.909.1,7.139,7.139,0,0,1-2.743-.572,11.929,11.929,0,0,1-3.079,2.768l.015.01a11.894,11.894,0,0,0,1.291.68Z" transform="translate(474.078 117.38)" fill="#fff" stroke="#fff" stroke-width="1"/>
    <path id="Path_1277" data-name="Path 1277" d="M469.048,228.407H442.266a3.865,3.865,0,0,0,0,7.731h26.782a3.865,3.865,0,1,0,0-7.731Z" transform="translate(443.591 92.985)" fill="#fff" stroke="#fff" stroke-width="1"/>
    <path id="Path_1278" data-name="Path 1278" d="M469.048,220.17H442.266a3.864,3.864,0,0,0,0,7.729h26.782a3.864,3.864,0,1,0,0-7.729Z" transform="translate(443.591 84.31)" fill="#fff" stroke="#fff" stroke-width="1"/>
    <path id="Path_1279" data-name="Path 1279" d="M469.048,211.931H442.266a3.864,3.864,0,0,0,0,7.729h26.782a3.864,3.864,0,1,0,0-7.729Z" transform="translate(443.591 75.633)" fill="#fff" stroke="#fff" stroke-width="1"/>
    <path id="Path_1280" data-name="Path 1280" d="M442.266,211.425h26.782a3.866,3.866,0,1,0,0-7.733H442.266a3.866,3.866,0,0,0,0,7.733Z" transform="translate(443.591 66.956)" fill="#fff" stroke="#fff" stroke-width="1"/>
    <g id="Group_7296" data-name="Group 7296" transform="translate(805.036 514.415)">
      <path id="Path_1281" data-name="Path 1281" d="M526.668,447.986H513.013v27.159H474.172V447.986H401.613V440.6L450.031,324h40.145l-37.437,90.123h24.174l8.868-33.288h27.228v33.288h13.659Z" transform="translate(-401.613 -324.002)" fill="#fff" stroke="#fff" stroke-width="1"/>
      <path id="Path_1282" data-name="Path 1282" d="M469.972,399.577c0-46.088,24.615-75.575,62.99-75.575s62.992,29.487,62.992,75.575c0,45.96-24.744,75.569-62.992,75.569S469.972,445.538,469.972,399.577Zm86.527.121c0-26.5-8.5-41.411-23.536-41.411-15.161,0-23.545,14.777-23.545,41.29s8.384,41.286,23.545,41.286S556.5,426.209,556.5,399.7Z" transform="translate(-327.376 -324.002)" fill="#fff" stroke="#fff" stroke-width="1"/>
      <path id="Path_1283" data-name="Path 1283" d="M662.428,447.986H648.771v27.159H609.936V447.986H537.369V440.6L585.795,324h40.136l-37.437,90.123h24.179l8.861-33.288h27.23v33.288h13.663Z" transform="translate(-254.184 -324.002)" fill="#fff" stroke="#fff" stroke-width="1"/>
    </g>
    <g id="Group_7297" data-name="Group 7297" transform="translate(790.041 693.178)" opacity="0.5">
      <path id="Path_1284" data-name="Path 1284" d="M394.426,423.715c0-7.745,6.035-13.48,14.26-13.48,8.192,0,14.264,5.7,14.264,13.48s-6.072,13.475-14.264,13.475C400.461,437.19,394.426,431.456,394.426,423.715Zm22.416,0a8.156,8.156,0,1,0-8.156,8.34A7.953,7.953,0,0,0,416.842,423.715Z" transform="translate(-394.426 -409.117)" fill="#fff" stroke="#fff" stroke-width="1"/>
      <path id="Path_1285" data-name="Path 1285" d="M409.367,423.513c0-6.033,4.656-10.317,11.022-10.317s10.983,4.285,10.983,10.317-4.618,10.313-10.983,10.313S409.367,429.544,409.367,423.513Zm16.123,0c0-3.463-2.2-5.549-5.1-5.549s-5.14,2.086-5.14,5.549,2.234,5.551,5.14,5.551S425.49,426.976,425.49,423.513Z" transform="translate(-378.2 -405.901)" fill="#fff" stroke="#fff" stroke-width="1"/>
      <path id="Path_1286" data-name="Path 1286" d="M443.59,423.513c0,6.291-4.355,10.313-9.977,10.313a7.779,7.779,0,0,1-6.033-2.418v9.345h-5.807V413.5h5.549v2.311a7.775,7.775,0,0,1,6.291-2.612C439.235,413.2,443.59,417.22,443.59,423.513Zm-5.882,0c0-3.463-2.2-5.549-5.1-5.549s-5.1,2.086-5.1,5.549,2.2,5.551,5.1,5.551S437.708,426.976,437.708,423.513Z" transform="translate(-364.728 -405.901)" fill="#fff" stroke="#fff" stroke-width="1"/>
      <path id="Path_1287" data-name="Path 1287" d="M433.161,431.672,435.1,427.5a13.775,13.775,0,0,0,6.963,1.932c2.68,0,3.688-.7,3.688-1.823,0-3.273-12.1.077-12.1-7.931,0-3.794,3.425-6.481,9.268-6.481a16.426,16.426,0,0,1,7.708,1.756l-1.936,4.132a11.465,11.465,0,0,0-5.772-1.489c-2.6,0-3.724.816-3.724,1.857,0,3.431,12.1.117,12.1,8.01,0,3.721-3.461,6.364-9.458,6.364A17.235,17.235,0,0,1,433.161,431.672Z" transform="translate(-352.36 -405.901)" fill="#fff" stroke="#fff" stroke-width="1"/>
      <path id="Path_1288" data-name="Path 1288" d="M443.156,433.423a3.586,3.586,0,0,1,7.151,0,3.581,3.581,0,0,1-7.151,0Zm.113-22.975H450.2l-1.156,17.015h-4.616Z" transform="translate(-341.506 -408.886)" fill="#fff" stroke="#fff" stroke-width="1"/>
      <path id="Path_1289" data-name="Path 1289" d="M455.36,423.2a8.728,8.728,0,0,1-1,3.723l-2.124,5.359h-3.686l1.638-5.92a3.225,3.225,0,0,1-2.013-3.162,3.594,3.594,0,0,1,7.188,0Z" transform="translate(-336.059 -398.922)" fill="#fff" stroke="#fff" stroke-width="1"/>
      <path id="Path_1290" data-name="Path 1290" d="M481.358,419.908c0,5.805-4.356,9.42-11.319,9.42h-5.248v7.184h-6.033V410.448h11.281C477,410.448,481.358,414.065,481.358,419.908Zm-6.1,0c0-2.868-1.865-4.539-5.549-4.539h-4.915v9.045h4.915C473.389,424.414,475.254,422.736,475.254,419.908Z" transform="translate(-324.563 -408.886)" fill="#fff" stroke="#fff" stroke-width="1"/>
      <path id="Path_1291" data-name="Path 1291" d="M489.761,422.1v11.431h-5.438v-2.493c-1.076,1.821-3.162,2.791-6.1,2.791-4.693,0-7.485-2.607-7.485-6.066,0-3.538,2.495-6,8.6-6h4.616c0-2.5-1.492-3.947-4.616-3.947a9.661,9.661,0,0,0-5.772,1.859l-2.086-4.057a15.4,15.4,0,0,1,8.638-2.424C486.225,413.2,489.761,416.029,489.761,422.1Zm-5.807,5.1v-2.048H479.97c-2.72,0-3.575,1-3.575,2.347,0,1.452,1.229,2.42,3.277,2.42A4.287,4.287,0,0,0,483.954,427.2Z" transform="translate(-311.556 -405.901)" fill="#fff" stroke="#fff" stroke-width="1"/>
      <path id="Path_1292" data-name="Path 1292" d="M503.923,413.5V430.18c0,7.447-4.024,10.87-11.246,10.87-3.8,0-7.484-.93-9.829-2.756l2.309-4.172a11.939,11.939,0,0,0,7.071,2.272c4.1,0,5.882-1.859,5.882-5.471v-.859a8.233,8.233,0,0,1-6.331,2.5c-5.547,0-10.015-3.834-10.015-9.679s4.468-9.687,10.015-9.687a8.053,8.053,0,0,1,6.629,2.875V413.5Zm-5.734,9.387c0-2.943-2.2-4.919-5.25-4.919s-5.29,1.975-5.29,4.919,2.234,4.912,5.29,4.912S498.189,425.822,498.189,422.883Z" transform="translate(-299.576 -405.901)" fill="#fff" stroke="#fff" stroke-width="1"/>
      <path id="Path_1293" data-name="Path 1293" d="M515.264,425.153H500.1c.557,2.491,2.68,4.022,5.736,4.022a6.79,6.79,0,0,0,5.025-1.936l3.089,3.352c-1.861,2.121-4.654,3.235-8.263,3.235-6.927,0-11.431-4.356-11.431-10.313,0-6,4.579-10.317,10.684-10.317,5.883,0,10.426,3.953,10.426,10.39C515.372,424.033,515.3,424.667,515.264,425.153Zm-15.23-3.388H509.9a5,5,0,0,0-9.865,0Z" transform="translate(-286.006 -405.901)" fill="#fff" stroke="#fff" stroke-width="1"/>
      <path id="Path_1294" data-name="Path 1294" d="M531.767,422.059v11.469h-5.8V422.956c0-3.237-1.489-4.733-4.064-4.733-2.791,0-4.8,1.717-4.8,5.4v9.9h-5.812V413.5h5.551v2.349a8.8,8.8,0,0,1,6.625-2.649C528.2,413.2,531.767,415.958,531.767,422.059Z" transform="translate(-267.515 -405.901)" fill="#fff" stroke="#fff" stroke-width="1"/>
      <path id="Path_1295" data-name="Path 1295" d="M523.018,423.513c0-6.033,4.656-10.317,11.02-10.317s10.985,4.285,10.985,10.317-4.618,10.313-10.985,10.313S523.018,429.544,523.018,423.513Zm16.125,0c0-3.463-2.2-5.549-5.1-5.549s-5.134,2.086-5.134,5.549,2.228,5.551,5.134,5.551S539.143,426.976,539.143,423.513Z" transform="translate(-254.777 -405.901)" fill="#fff" stroke="#fff" stroke-width="1"/>
      <path id="Path_1296" data-name="Path 1296" d="M549.583,434.712a8.288,8.288,0,0,1-4.725,1.264c-4.727,0-7.487-2.418-7.487-7.186v-8.229h-3.089V416.1h3.089v-4.883h5.807V416.1h4.992v4.462h-4.992v8.156a2.337,2.337,0,0,0,2.5,2.643,3.9,3.9,0,0,0,2.343-.745Z" transform="translate(-242.545 -408.052)" fill="#fff" stroke="#fff" stroke-width="1"/>
      <path id="Path_1297" data-name="Path 1297" d="M554.472,415.294v6.882h12.061v4.842H554.472v9.5h-6.037V410.448h19.7v4.846Z" transform="translate(-227.175 -408.886)" fill="#fff" stroke="#fff" stroke-width="1"/>
      <path id="Path_1298" data-name="Path 1298" d="M558.683,423.513c0-6.033,4.65-10.317,11.018-10.317s10.987,4.285,10.987,10.317-4.618,10.313-10.987,10.313S558.683,429.544,558.683,423.513Zm16.121,0c0-3.463-2.2-5.549-5.1-5.549s-5.136,2.086-5.136,5.549,2.232,5.551,5.136,5.551S574.8,426.976,574.8,423.513Z" transform="translate(-216.046 -405.901)" fill="#fff" stroke="#fff" stroke-width="1"/>
      <path id="Path_1299" data-name="Path 1299" d="M591.326,413.34v20.032h-5.509v-2.38a8.113,8.113,0,0,1-6.218,2.678c-5.029,0-8.565-2.831-8.565-9.009V413.34h5.812V423.8c0,3.352,1.487,4.842,4.055,4.842,2.683,0,4.616-1.711,4.616-5.4V413.34Z" transform="translate(-202.633 -405.745)" fill="#fff" stroke="#fff" stroke-width="1"/>
      <path id="Path_1300" data-name="Path 1300" d="M603.829,422.059v11.469h-5.805V422.956c0-3.237-1.487-4.733-4.063-4.733-2.787,0-4.8,1.717-4.8,5.4v9.9h-5.81V413.5H588.9v2.349a8.785,8.785,0,0,1,6.625-2.649C600.26,413.2,603.829,415.958,603.829,422.059Z" transform="translate(-189.257 -405.901)" fill="#fff" stroke="#fff" stroke-width="1"/>
      <path id="Path_1301" data-name="Path 1301" d="M616.934,409.7v27.627h-5.547v-2.309a7.7,7.7,0,0,1-6.256,2.608c-5.661,0-10.017-4.022-10.017-10.313s4.356-10.317,10.017-10.317a7.705,7.705,0,0,1,6,2.424V409.7Zm-5.7,17.612c0-3.463-2.234-5.549-5.1-5.549-2.9,0-5.138,2.086-5.138,5.549s2.234,5.551,5.138,5.551C609,432.862,611.236,430.774,611.236,427.311Z" transform="translate(-176.481 -409.699)" fill="#fff" stroke="#fff" stroke-width="1"/>
    </g>
  </g>
</svg>
