<svg id="Component_18_1" data-name="Component 18 – 1" xmlns="http://www.w3.org/2000/svg" width="39.993" height="16.364" viewBox="0 0 39.993 16.364">
  <path id="Path_1" data-name="Path 1" d="M31.28,21.158,27.548,28.2H30c.459-.909.909-1.816,1.36-2.73L32.725,27h2.527l.6,1.193h2.433l-3.68-7.038Zm.082,4.305,1.356-2.669h.428L34.5,25.463Z" transform="translate(-8.408 -11.832)"/>
  <path id="Path_2" data-name="Path 2" d="M31.429,18.8l1.356-2.67h.427l1.356,2.67H31.429L32.8,20.342H35.32l.6,1.192h2.432L34.676,14.5H31.348l-3.732,7.039h2.448Z" transform="translate(-8.382 -14.39)"/>
  <path id="Path_3" data-name="Path 3" d="M14.417,21.292a3.1,3.1,0,0,0,1.139.293c.505.055,1.288.083,2.346.083q1.9,0,2.592-.062A3.025,3.025,0,0,0,21.5,21.37a1.264,1.264,0,0,0,.559-.531,3.164,3.164,0,0,0,.268-1.479,3.284,3.284,0,0,0-.161-1.162,1.267,1.267,0,0,0-.545-.637,2.4,2.4,0,0,0-.915-.266q-.575-.071-2.279-.122a21.651,21.651,0,0,1-2.271-.127.414.414,0,0,1-.3-.454.429.429,0,0,1,.3-.473,8.993,8.993,0,0,1,1.663-.084q1.135,0,1.485.022a1.216,1.216,0,0,1,.491.107.33.33,0,0,1,.151.176,1.525,1.525,0,0,1,.048.4h2.079V16.41a2.05,2.05,0,0,0-.361-1.366,2.167,2.167,0,0,0-1.33-.538,18.329,18.329,0,0,0-2.18-.087,24.974,24.974,0,0,0-2.91.105,1.731,1.731,0,0,0-1.061.487,2.474,2.474,0,0,0-.453,1.684,2.3,2.3,0,0,0,.4,1.517,1.3,1.3,0,0,0,.646.394,5.065,5.065,0,0,0,1.187.148q.4.01,1.71.072c.854.04,1.416.061,1.679.061a1.558,1.558,0,0,1,.684.116.464.464,0,0,1,.166.421q0,.434-.237.531a1.269,1.269,0,0,1-.432.08q-.274.015-1.632.018c-.864-.007-1.377-.015-1.542-.028a.847.847,0,0,1-.4-.118c-.144-.1-.214-.328-.212-.678H13.723l-.006.331a3.2,3.2,0,0,0,.151,1.131A1.234,1.234,0,0,0,14.417,21.292Z" transform="translate(-13.717 -14.419)"/>
  <path id="Path_4" data-name="Path 4" d="M22.728,18.991h4.844v2.543h2.248V14.5H27.571v2.522H22.728V14.5H20.48v7.039h2.248Z" transform="translate(-11.121 -14.39)"/>
  <path id="Path_5" data-name="Path 5" d="M37.237,21.554a28.94,28.94,0,0,0,3.154.112,28.327,28.327,0,0,0,3.111-.112,1.617,1.617,0,0,0,1.511-1.171,9.9,9.9,0,0,0,.191-2.34,9.865,9.865,0,0,0-.191-2.335A1.616,1.616,0,0,0,43.5,14.539a28.248,28.248,0,0,0-3.132-.112,28.193,28.193,0,0,0-3.133.112,1.619,1.619,0,0,0-1.511,1.169A9.682,9.682,0,0,0,35.536,18a10.241,10.241,0,0,0,.19,2.38A1.62,1.62,0,0,0,37.237,21.554ZM37.8,16.8a.7.7,0,0,1,.52-.464,13.017,13.017,0,0,1,2.054-.087q1.495,0,1.886.054a.8.8,0,0,1,.562.282,1.194,1.194,0,0,1,.187.536,8.915,8.915,0,0,1,.05,1.115,4.48,4.48,0,0,1-.066.922.735.735,0,0,1-.253.426,1.261,1.261,0,0,1-.632.208c-.285.029-.861.046-1.723.046a18.032,18.032,0,0,1-1.86-.062.805.805,0,0,1-.78-.616,4.719,4.719,0,0,1-.066-.934A5.231,5.231,0,0,1,37.8,16.8Z" transform="translate(-5.342 -14.416)"/>
  <path id="Path_6" data-name="Path 6" d="M22.853,21.127H19.687L17,23.723H15.863V21.169h-2.07v7.039h2.07V25.517H17l3.042,2.691h3.147l-4.262-3.583Z" transform="translate(-13.688 -11.844)"/>
  <path id="Path_7" data-name="Path 7" d="M27.664,23.68H22.82V21.158H20.572V28.2H22.82V25.653h4.844V28.2h2.248V21.158H27.664Z" transform="translate(-11.086 -11.833)"/>
  <path id="Path_8" data-name="Path 8" d="M43.152,21.158l.053,5.255h-.222L39.3,21.158H35.54V28.2h2.181l-.048-5.255h.232l3.7,5.255h3.727V21.158Z" transform="translate(-5.341 -11.833)"/>
</svg>
